<svg width="563" height="278" viewBox="0 0 563 278" fill="none" xmlns="http://www.w3.org/2000/svg">
<mask id="path-1-outside-1_2_51" maskUnits="userSpaceOnUse" x="13" y="86" width="56" height="86" fill="black">
<rect fill="white" x="13" y="86" width="56" height="86"/>
<path d="M14.592 171V87.032H66.56V95.992H25.344V122.36H60.16V131.448H25.344V161.912H67.84V171H14.592Z"/>
</mask>
<path d="M14.592 171V87.032H66.56V95.992H25.344V122.36H60.16V131.448H25.344V161.912H67.84V171H14.592Z" fill="#05DF72"/>
<path d="M14.592 171H13.592V172H14.592V171ZM14.592 87.032V86.032H13.592V87.032H14.592ZM66.56 87.032H67.56V86.032H66.56V87.032ZM66.56 95.992V96.992H67.56V95.992H66.56ZM25.344 95.992V94.992H24.344V95.992H25.344ZM25.344 122.36H24.344V123.36H25.344V122.36ZM60.16 122.36H61.16V121.36H60.16V122.36ZM60.16 131.448V132.448H61.16V131.448H60.16ZM25.344 131.448V130.448H24.344V131.448H25.344ZM25.344 161.912H24.344V162.912H25.344V161.912ZM67.84 161.912H68.84V160.912H67.84V161.912ZM67.84 171V172H68.84V171H67.84ZM15.592 171V87.032H13.592V171H15.592ZM14.592 88.032H66.56V86.032H14.592V88.032ZM65.56 87.032V95.992H67.56V87.032H65.56ZM66.56 94.992H25.344V96.992H66.56V94.992ZM24.344 95.992V122.36H26.344V95.992H24.344ZM25.344 123.36H60.16V121.36H25.344V123.36ZM59.16 122.36V131.448H61.16V122.36H59.16ZM60.16 130.448H25.344V132.448H60.16V130.448ZM24.344 131.448V161.912H26.344V131.448H24.344ZM25.344 162.912H67.84V160.912H25.344V162.912ZM66.84 161.912V171H68.84V161.912H66.84ZM67.84 170H14.592V172H67.84V170Z" fill="#05DF72" mask="url(#path-1-outside-1_2_51)"/>
<mask id="path-3-outside-2_2_51" maskUnits="userSpaceOnUse" x="74" y="151" width="62" height="68" fill="black">
<rect fill="white" x="74" y="151" width="62" height="68"/>
<path d="M109.288 217.536C102.803 217.536 96.9573 216.256 91.752 213.696C86.632 211.136 82.5787 207.424 79.592 202.56C76.6907 197.696 75.24 191.851 75.24 185.024C75.24 178.027 76.8187 172.096 79.976 167.232C83.1333 162.368 87.3147 158.656 92.52 156.096C97.8107 153.536 103.613 152.256 109.928 152.256C115.048 152.256 119.443 153.152 123.112 154.944C126.867 156.736 130.024 158.869 132.584 161.344L127.336 168.128C124.776 165.909 122.131 164.16 119.4 162.88C116.669 161.6 113.64 160.96 110.312 160.96C105.533 160.96 101.309 161.984 97.64 164.032C93.9707 165.995 91.112 168.811 89.064 172.48C87.1013 176.064 86.12 180.245 86.12 185.024C86.12 189.717 87.1013 193.856 89.064 197.44C91.0267 201.024 93.8 203.84 97.384 205.888C101.053 207.851 105.277 208.832 110.056 208.832C113.896 208.832 117.395 208.064 120.552 206.528C123.795 204.992 126.696 203.157 129.256 201.024L133.992 207.808C130.579 210.88 126.739 213.269 122.472 214.976C118.291 216.683 113.896 217.536 109.288 217.536Z"/>
</mask>
<path d="M109.288 217.536C102.803 217.536 96.9573 216.256 91.752 213.696C86.632 211.136 82.5787 207.424 79.592 202.56C76.6907 197.696 75.24 191.851 75.24 185.024C75.24 178.027 76.8187 172.096 79.976 167.232C83.1333 162.368 87.3147 158.656 92.52 156.096C97.8107 153.536 103.613 152.256 109.928 152.256C115.048 152.256 119.443 153.152 123.112 154.944C126.867 156.736 130.024 158.869 132.584 161.344L127.336 168.128C124.776 165.909 122.131 164.16 119.4 162.88C116.669 161.6 113.64 160.96 110.312 160.96C105.533 160.96 101.309 161.984 97.64 164.032C93.9707 165.995 91.112 168.811 89.064 172.48C87.1013 176.064 86.12 180.245 86.12 185.024C86.12 189.717 87.1013 193.856 89.064 197.44C91.0267 201.024 93.8 203.84 97.384 205.888C101.053 207.851 105.277 208.832 110.056 208.832C113.896 208.832 117.395 208.064 120.552 206.528C123.795 204.992 126.696 203.157 129.256 201.024L133.992 207.808C130.579 210.88 126.739 213.269 122.472 214.976C118.291 216.683 113.896 217.536 109.288 217.536Z" fill="#05DF72"/>
<path d="M91.752 213.696L91.3048 214.59L91.3107 214.593L91.752 213.696ZM79.592 202.56L78.7331 203.072L78.7398 203.083L79.592 202.56ZM79.976 167.232L79.1372 166.688L79.1372 166.688L79.976 167.232ZM92.52 156.096L92.0844 155.196L92.0787 155.199L92.52 156.096ZM123.112 154.944L122.673 155.843L122.681 155.846L123.112 154.944ZM132.584 161.344L133.375 161.956L133.923 161.247L133.279 160.625L132.584 161.344ZM127.336 168.128L126.681 168.884L127.48 169.576L128.127 168.74L127.336 168.128ZM119.4 162.88L119.824 161.975L119.824 161.975L119.4 162.88ZM97.64 164.032L98.1117 164.914L98.1196 164.91L98.1274 164.905L97.64 164.032ZM89.064 172.48L88.1908 171.993L88.1869 172L89.064 172.48ZM89.064 197.44L89.9411 196.96L89.9411 196.96L89.064 197.44ZM97.384 205.888L96.8879 206.756L96.9 206.763L96.9124 206.77L97.384 205.888ZM120.552 206.528L120.124 205.624L120.115 205.629L120.552 206.528ZM129.256 201.024L130.076 200.452L129.453 199.559L128.616 200.256L129.256 201.024ZM133.992 207.808L134.661 208.551L135.318 207.96L134.812 207.236L133.992 207.808ZM122.472 214.976L122.101 214.048L122.094 214.05L122.472 214.976ZM109.288 216.536C102.937 216.536 97.2459 215.284 92.1933 212.799L91.3107 214.593C96.6688 217.228 102.668 218.536 109.288 218.536V216.536ZM92.1992 212.802C87.2457 210.325 83.3328 206.741 80.4442 202.037L78.7398 203.083C81.8245 208.107 86.0183 211.947 91.3048 214.59L92.1992 212.802ZM80.4508 202.048C77.6592 197.368 76.24 191.707 76.24 185.024H74.24C74.24 191.994 75.7221 198.024 78.7332 203.072L80.4508 202.048ZM76.24 185.024C76.24 178.18 77.7827 172.448 80.8148 167.776L79.1372 166.688C75.8547 171.744 74.24 177.874 74.24 185.024H76.24ZM80.8148 167.776C83.8739 163.064 87.9178 159.474 92.9613 156.993L92.0787 155.199C86.7115 157.838 82.3928 161.672 79.1372 166.688L80.8148 167.776ZM92.9556 156.996C98.1005 154.507 103.753 153.256 109.928 153.256V151.256C103.474 151.256 97.5208 152.565 92.0844 155.196L92.9556 156.996ZM109.928 153.256C114.934 153.256 119.171 154.132 122.673 155.843L123.551 154.045C119.715 152.172 115.162 151.256 109.928 151.256V153.256ZM122.681 155.846C126.355 157.6 129.418 159.675 131.889 162.063L133.279 160.625C130.63 158.064 127.379 155.872 123.543 154.042L122.681 155.846ZM131.793 160.732L126.545 167.516L128.127 168.74L133.375 161.956L131.793 160.732ZM127.991 167.372C125.37 165.101 122.648 163.298 119.824 161.975L118.976 163.785C121.613 165.022 124.182 166.718 126.681 168.884L127.991 167.372ZM119.824 161.975C116.948 160.626 113.771 159.96 110.312 159.96V161.96C113.509 161.96 116.391 162.574 118.976 163.785L119.824 161.975ZM110.312 159.96C105.386 159.96 100.99 161.017 97.1526 163.159L98.1274 164.905C101.628 162.951 105.68 161.96 110.312 161.96V159.96ZM97.1684 163.15C93.3284 165.204 90.3312 168.158 88.1908 171.993L89.9372 172.967C91.8928 169.463 94.6129 166.785 98.1117 164.914L97.1684 163.15ZM88.1869 172C86.1309 175.754 85.12 180.106 85.12 185.024H87.12C87.12 180.385 88.0718 176.374 89.9411 172.96L88.1869 172ZM85.12 185.024C85.12 189.86 86.1323 194.168 88.1869 197.92L89.9411 196.96C88.0704 193.544 87.12 189.575 87.12 185.024H85.12ZM88.1869 197.92C90.2392 201.668 93.1452 204.618 96.8879 206.756L97.8801 205.02C94.4548 203.062 91.8141 200.38 89.9411 196.96L88.1869 197.92ZM96.9124 206.77C100.747 208.821 105.137 209.832 110.056 209.832V207.832C105.417 207.832 101.36 206.88 97.8557 205.006L96.9124 206.77ZM110.056 209.832C114.033 209.832 117.683 209.036 120.989 207.427L120.115 205.629C117.106 207.092 113.759 207.832 110.056 207.832V209.832ZM120.98 207.432C124.293 205.862 127.267 203.983 129.896 201.792L128.616 200.256C126.125 202.331 123.296 204.122 120.124 205.624L120.98 207.432ZM128.436 201.596L133.172 208.38L134.812 207.236L130.076 200.452L128.436 201.596ZM133.323 207.065C129.997 210.058 126.258 212.385 122.101 214.048L122.843 215.904C127.219 214.154 131.16 211.702 134.661 208.551L133.323 207.065ZM122.094 214.05C118.035 215.707 113.769 216.536 109.288 216.536V218.536C114.023 218.536 118.546 217.658 122.85 215.902L122.094 214.05Z" fill="#05DF72" mask="url(#path-3-outside-2_2_51)"/>
<mask id="path-5-outside-3_2_51" maskUnits="userSpaceOnUse" x="165" y="127" width="58" height="38" fill="black">
<rect fill="white" x="165" y="127" width="58" height="38"/>
<path d="M166.88 136.032V128.096H221.92V136.032H166.88ZM166.88 163.424V155.488H221.92V163.424H166.88Z"/>
</mask>
<path d="M166.88 136.032V128.096H221.92V136.032H166.88ZM166.88 163.424V155.488H221.92V163.424H166.88Z" fill="#05DF72"/>
<path d="M166.88 136.032H165.88V137.032H166.88V136.032ZM166.88 128.096V127.096H165.88V128.096H166.88ZM221.92 128.096H222.92V127.096H221.92V128.096ZM221.92 136.032V137.032H222.92V136.032H221.92ZM166.88 163.424H165.88V164.424H166.88V163.424ZM166.88 155.488V154.488H165.88V155.488H166.88ZM221.92 155.488H222.92V154.488H221.92V155.488ZM221.92 163.424V164.424H222.92V163.424H221.92ZM167.88 136.032V128.096H165.88V136.032H167.88ZM166.88 129.096H221.92V127.096H166.88V129.096ZM220.92 128.096V136.032H222.92V128.096H220.92ZM221.92 135.032H166.88V137.032H221.92V135.032ZM167.88 163.424V155.488H165.88V163.424H167.88ZM166.88 156.488H221.92V154.488H166.88V156.488ZM220.92 155.488V163.424H222.92V155.488H220.92ZM221.92 162.424H166.88V164.424H221.92V162.424Z" fill="#05DF72" mask="url(#path-5-outside-3_2_51)"/>
<mask id="path-7-outside-4_2_51" maskUnits="userSpaceOnUse" x="270" y="43" width="58" height="84" fill="black">
<rect fill="white" x="270" y="43" width="58" height="84"/>
<path d="M271.416 126V117.296H294.968V57.136H276.664V50.352C279.907 49.9253 282.765 49.4133 285.24 48.816C287.715 48.2187 289.976 47.5787 292.024 46.896C294.072 46.128 295.949 45.2747 297.656 44.336H305.464V117.296H326.84V126H271.416Z"/>
</mask>
<path d="M271.416 126V117.296H294.968V57.136H276.664V50.352C279.907 49.9253 282.765 49.4133 285.24 48.816C287.715 48.2187 289.976 47.5787 292.024 46.896C294.072 46.128 295.949 45.2747 297.656 44.336H305.464V117.296H326.84V126H271.416Z" fill="#05DF72"/>
<path d="M271.416 126H270.416V127H271.416V126ZM271.416 117.296V116.296H270.416V117.296H271.416ZM294.968 117.296V118.296H295.968V117.296H294.968ZM294.968 57.136H295.968V56.136H294.968V57.136ZM276.664 57.136H275.664V58.136H276.664V57.136ZM276.664 50.352L276.534 49.3605L275.664 49.475V50.352H276.664ZM285.24 48.816L285.005 47.8439L285.005 47.8439L285.24 48.816ZM292.024 46.896L292.34 47.8447L292.358 47.8388L292.375 47.8323L292.024 46.896ZM297.656 44.336V43.336H297.399L297.174 43.4598L297.656 44.336ZM305.464 44.336H306.464V43.336H305.464V44.336ZM305.464 117.296H304.464V118.296H305.464V117.296ZM326.84 117.296H327.84V116.296H326.84V117.296ZM326.84 126V127H327.84V126H326.84ZM272.416 126V117.296H270.416V126H272.416ZM271.416 118.296H294.968V116.296H271.416V118.296ZM295.968 117.296V57.136H293.968V117.296H295.968ZM294.968 56.136H276.664V58.136H294.968V56.136ZM277.664 57.136V50.352H275.664V57.136H277.664ZM276.794 51.3435C280.063 50.9134 282.958 50.3956 285.475 49.7881L285.005 47.8439C282.573 48.431 279.75 48.9373 276.534 49.3605L276.794 51.3435ZM285.475 49.7881C287.972 49.1852 290.261 48.5377 292.34 47.8447L291.708 45.9473C289.691 46.6196 287.457 47.2521 285.005 47.8439L285.475 49.7881ZM292.375 47.8323C294.463 47.0495 296.384 46.1766 298.138 45.2122L297.174 43.4598C295.514 44.3727 293.681 45.2065 291.673 45.9597L292.375 47.8323ZM297.656 45.336H305.464V43.336H297.656V45.336ZM304.464 44.336V117.296H306.464V44.336H304.464ZM305.464 118.296H326.84V116.296H305.464V118.296ZM325.84 117.296V126H327.84V117.296H325.84ZM326.84 125H271.416V127H326.84V125Z" fill="#05DF72" mask="url(#path-7-outside-4_2_51)"/>
<mask id="path-9-outside-5_2_51" maskUnits="userSpaceOnUse" x="266" y="158" width="61" height="86" fill="black">
<rect fill="white" x="266" y="158" width="61" height="86"/>
<path d="M268.344 243V236.728C277.56 228.621 285.325 221.496 291.64 215.352C298.04 209.123 302.904 203.533 306.232 198.584C309.56 193.635 311.224 188.899 311.224 184.376C311.224 179.683 309.773 175.843 306.872 172.856C303.971 169.869 299.491 168.376 293.432 168.376C289.592 168.376 286.008 169.315 282.68 171.192C279.437 173.069 276.493 175.416 273.848 178.232L267.832 172.216C271.501 168.461 275.427 165.475 279.608 163.256C283.875 160.952 288.909 159.8 294.712 159.8C300.173 159.8 304.867 160.824 308.792 162.872C312.803 164.835 315.875 167.608 318.008 171.192C320.227 174.776 321.336 179 321.336 183.864C321.336 188.984 319.757 194.147 316.6 199.352C313.443 204.557 309.005 210.061 303.288 215.864C297.656 221.581 291.128 227.853 283.704 234.68C286.264 234.424 288.824 234.253 291.384 234.168C293.944 233.997 296.461 233.912 298.936 233.912H325.816V243H268.344Z"/>
</mask>
<path d="M268.344 243V236.728C277.56 228.621 285.325 221.496 291.64 215.352C298.04 209.123 302.904 203.533 306.232 198.584C309.56 193.635 311.224 188.899 311.224 184.376C311.224 179.683 309.773 175.843 306.872 172.856C303.971 169.869 299.491 168.376 293.432 168.376C289.592 168.376 286.008 169.315 282.68 171.192C279.437 173.069 276.493 175.416 273.848 178.232L267.832 172.216C271.501 168.461 275.427 165.475 279.608 163.256C283.875 160.952 288.909 159.8 294.712 159.8C300.173 159.8 304.867 160.824 308.792 162.872C312.803 164.835 315.875 167.608 318.008 171.192C320.227 174.776 321.336 179 321.336 183.864C321.336 188.984 319.757 194.147 316.6 199.352C313.443 204.557 309.005 210.061 303.288 215.864C297.656 221.581 291.128 227.853 283.704 234.68C286.264 234.424 288.824 234.253 291.384 234.168C293.944 233.997 296.461 233.912 298.936 233.912H325.816V243H268.344Z" fill="#05DF72"/>
<path d="M268.344 243H267.344V244H268.344V243ZM268.344 236.728L267.684 235.977L267.344 236.276V236.728H268.344ZM291.64 215.352L292.337 216.069L292.337 216.069L291.64 215.352ZM306.232 198.584L307.062 199.142L307.062 199.142L306.232 198.584ZM306.872 172.856L307.589 172.159L307.589 172.159L306.872 172.856ZM282.68 171.192L282.189 170.321L282.179 170.327L282.68 171.192ZM273.848 178.232L273.141 178.939L273.87 179.669L274.577 178.917L273.848 178.232ZM267.832 172.216L267.117 171.517L266.426 172.224L267.125 172.923L267.832 172.216ZM279.608 163.256L280.077 164.139L280.083 164.136L279.608 163.256ZM308.792 162.872L308.329 163.759L308.341 163.765L308.352 163.77L308.792 162.872ZM318.008 171.192L317.149 171.703L317.153 171.711L317.158 171.718L318.008 171.192ZM316.6 199.352L315.745 198.833L315.745 198.833L316.6 199.352ZM303.288 215.864L302.576 215.162L302.576 215.162L303.288 215.864ZM283.704 234.68L283.027 233.944L280.82 235.973L283.804 235.675L283.704 234.68ZM291.384 234.168L291.417 235.167L291.434 235.167L291.451 235.166L291.384 234.168ZM325.816 233.912H326.816V232.912H325.816V233.912ZM325.816 243V244H326.816V243H325.816ZM269.344 243V236.728H267.344V243H269.344ZM269.004 237.479C278.229 229.365 286.007 222.228 292.337 216.069L290.943 214.635C284.644 220.764 276.891 227.878 267.684 235.977L269.004 237.479ZM292.337 216.069C298.765 209.812 303.681 204.169 307.062 199.142L305.402 198.026C302.127 202.897 297.315 208.433 290.943 214.635L292.337 216.069ZM307.062 199.142C310.466 194.079 312.224 189.152 312.224 184.376H310.224C310.224 188.646 308.654 193.19 305.402 198.026L307.062 199.142ZM312.224 184.376C312.224 179.458 310.696 175.357 307.589 172.159L306.155 173.553C308.851 176.329 310.224 179.907 310.224 184.376H312.224ZM307.589 172.159C304.428 168.905 299.637 167.376 293.432 167.376V169.376C299.344 169.376 303.513 170.834 306.155 173.553L307.589 172.159ZM293.432 167.376C289.421 167.376 285.667 168.359 282.189 170.321L283.171 172.063C286.349 170.271 289.763 169.376 293.432 169.376V167.376ZM282.179 170.327C278.849 172.254 275.829 174.663 273.119 177.547L274.577 178.917C277.158 176.169 280.025 173.884 283.181 172.057L282.179 170.327ZM274.555 177.525L268.539 171.509L267.125 172.923L273.141 178.939L274.555 177.525ZM268.547 172.915C272.152 169.226 275.996 166.305 280.077 164.139L279.139 162.373C274.857 164.645 270.85 167.697 267.117 171.517L268.547 172.915ZM280.083 164.136C284.178 161.925 289.043 160.8 294.712 160.8V158.8C288.776 158.8 283.572 159.979 279.133 162.376L280.083 164.136ZM294.712 160.8C300.049 160.8 304.576 161.801 308.329 163.759L309.255 161.985C305.157 159.847 300.297 158.8 294.712 158.8V160.8ZM308.352 163.77C312.201 165.654 315.122 168.298 317.149 171.703L318.867 170.681C316.627 166.918 313.404 164.016 309.232 161.974L308.352 163.77ZM317.158 171.718C319.264 175.121 320.336 179.157 320.336 183.864H322.336C322.336 178.843 321.189 174.431 318.858 170.666L317.158 171.718ZM320.336 183.864C320.336 188.769 318.826 193.755 315.745 198.833L317.455 199.871C320.689 194.539 322.336 189.199 322.336 183.864H320.336ZM315.745 198.833C312.639 203.954 308.256 209.397 302.576 215.162L304 216.566C309.755 210.725 314.246 205.16 317.455 199.871L315.745 198.833ZM302.576 215.162C296.958 220.865 290.442 227.126 283.027 233.944L284.381 235.416C291.814 228.581 298.354 222.297 304 216.566L302.576 215.162ZM283.804 235.675C286.342 235.421 288.88 235.252 291.417 235.167L291.351 233.169C288.768 233.255 286.186 233.427 283.604 233.685L283.804 235.675ZM291.451 235.166C293.989 234.997 296.484 234.912 298.936 234.912V232.912C296.438 232.912 293.899 232.998 291.317 233.17L291.451 235.166ZM298.936 234.912H325.816V232.912H298.936V234.912ZM324.816 233.912V243H326.816V233.912H324.816ZM325.816 242H268.344V244H325.816V242Z" fill="#05DF72" mask="url(#path-9-outside-5_2_51)"/>
<path d="M246.5 144H357.5" stroke="#05DF72" stroke-width="12"/>
<mask id="path-12-outside-6_2_51" maskUnits="userSpaceOnUse" x="377" y="106" width="143" height="66" fill="black">
<rect fill="white" x="377" y="106" width="143" height="66"/>
<path d="M378.424 171V108.792H386.872L387.768 116.984H388.024C389.645 114.083 391.523 111.736 393.656 109.944C395.789 108.152 398.648 107.256 402.232 107.256C405.304 107.256 407.821 108.152 409.784 109.944C411.747 111.736 413.155 114.424 414.008 118.008C415.8 114.68 417.763 112.077 419.896 110.2C422.115 108.237 425.016 107.256 428.6 107.256C432.952 107.256 436.323 108.92 438.712 112.248C441.187 115.491 442.424 120.227 442.424 126.456V171H431.928V127.224C431.928 119.971 429.709 116.344 425.272 116.344C423.139 116.344 421.347 117.155 419.896 118.776C418.531 120.312 416.995 122.701 415.288 125.944V171H405.56V127.224C405.56 123.64 405.048 120.952 404.024 119.16C403.085 117.283 401.464 116.344 399.16 116.344C397.027 116.344 395.149 117.155 393.528 118.776C391.992 120.312 390.456 122.701 388.92 125.944V171H378.424ZM480.518 171L454.278 108.792H464.902L479.238 144.12C480.518 147.192 481.713 150.264 482.822 153.336C484.017 156.408 485.169 159.437 486.278 162.424H486.79C487.899 159.437 489.009 156.408 490.118 153.336C491.227 150.264 492.379 147.192 493.574 144.12L507.91 108.792H518.022L492.294 171H480.518Z"/>
</mask>
<path d="M378.424 171V108.792H386.872L387.768 116.984H388.024C389.645 114.083 391.523 111.736 393.656 109.944C395.789 108.152 398.648 107.256 402.232 107.256C405.304 107.256 407.821 108.152 409.784 109.944C411.747 111.736 413.155 114.424 414.008 118.008C415.8 114.68 417.763 112.077 419.896 110.2C422.115 108.237 425.016 107.256 428.6 107.256C432.952 107.256 436.323 108.92 438.712 112.248C441.187 115.491 442.424 120.227 442.424 126.456V171H431.928V127.224C431.928 119.971 429.709 116.344 425.272 116.344C423.139 116.344 421.347 117.155 419.896 118.776C418.531 120.312 416.995 122.701 415.288 125.944V171H405.56V127.224C405.56 123.64 405.048 120.952 404.024 119.16C403.085 117.283 401.464 116.344 399.16 116.344C397.027 116.344 395.149 117.155 393.528 118.776C391.992 120.312 390.456 122.701 388.92 125.944V171H378.424ZM480.518 171L454.278 108.792H464.902L479.238 144.12C480.518 147.192 481.713 150.264 482.822 153.336C484.017 156.408 485.169 159.437 486.278 162.424H486.79C487.899 159.437 489.009 156.408 490.118 153.336C491.227 150.264 492.379 147.192 493.574 144.12L507.91 108.792H518.022L492.294 171H480.518Z" fill="#05DF72"/>
<path d="M378.424 171H377.424V172H378.424V171ZM378.424 108.792V107.792H377.424V108.792H378.424ZM386.872 108.792L387.866 108.683L387.769 107.792H386.872V108.792ZM387.768 116.984L386.774 117.093L386.871 117.984H387.768V116.984ZM388.024 116.984V117.984H388.611L388.897 117.472L388.024 116.984ZM393.656 109.944L393.013 109.178L393.013 109.178L393.656 109.944ZM414.008 118.008L413.035 118.24L413.643 120.794L414.888 118.482L414.008 118.008ZM419.896 110.2L420.557 110.951L420.559 110.949L419.896 110.2ZM438.712 112.248L437.9 112.831L437.908 112.843L437.917 112.855L438.712 112.248ZM442.424 171V172H443.424V171H442.424ZM431.928 171H430.928V172H431.928V171ZM419.896 118.776L419.151 118.109L419.149 118.112L419.896 118.776ZM415.288 125.944L414.403 125.478L414.288 125.697V125.944H415.288ZM415.288 171V172H416.288V171H415.288ZM405.56 171H404.56V172H405.56V171ZM404.024 119.16L403.13 119.607L403.142 119.632L403.156 119.656L404.024 119.16ZM393.528 118.776L392.821 118.069L393.528 118.776ZM388.92 125.944L388.016 125.516L387.92 125.719V125.944H388.92ZM388.92 171V172H389.92V171H388.92ZM379.424 171V108.792H377.424V171H379.424ZM378.424 109.792H386.872V107.792H378.424V109.792ZM385.878 108.901L386.774 117.093L388.762 116.875L387.866 108.683L385.878 108.901ZM387.768 117.984H388.024V115.984H387.768V117.984ZM388.897 117.472C390.47 114.656 392.275 112.41 394.299 110.71L393.013 109.178C390.771 111.062 388.82 113.509 387.151 116.496L388.897 117.472ZM394.299 110.71C396.206 109.108 398.815 108.256 402.232 108.256V106.256C398.481 106.256 395.373 107.196 393.013 109.178L394.299 110.71ZM402.232 108.256C405.096 108.256 407.36 109.085 409.11 110.682L410.458 109.206C408.283 107.219 405.512 106.256 402.232 106.256V108.256ZM409.11 110.682C410.877 112.296 412.211 114.778 413.035 118.24L414.981 117.776C414.098 114.07 412.616 111.176 410.458 109.206L409.11 110.682ZM414.888 118.482C416.642 115.226 418.536 112.728 420.557 110.951L419.235 109.449C416.989 111.426 414.958 114.134 413.128 117.534L414.888 118.482ZM420.559 110.949C422.558 109.18 425.206 108.256 428.6 108.256V106.256C424.826 106.256 421.671 107.294 419.233 109.451L420.559 110.949ZM428.6 108.256C432.653 108.256 435.712 109.783 437.9 112.831L439.524 111.665C436.934 108.057 433.251 106.256 428.6 106.256V108.256ZM437.917 112.855C440.205 115.853 441.424 120.337 441.424 126.456H443.424C443.424 120.117 442.168 115.129 439.507 111.641L437.917 112.855ZM441.424 126.456V171H443.424V126.456H441.424ZM442.424 170H431.928V172H442.424V170ZM432.928 171V127.224H430.928V171H432.928ZM432.928 127.224C432.928 123.528 432.369 120.588 431.117 118.542C429.817 116.416 427.82 115.344 425.272 115.344V117.344C427.161 117.344 428.493 118.085 429.411 119.586C430.378 121.167 430.928 123.667 430.928 127.224H432.928ZM425.272 115.344C422.848 115.344 420.787 116.281 419.151 118.109L420.641 119.443C421.906 118.029 423.43 117.344 425.272 117.344V115.344ZM419.149 118.112C417.703 119.738 416.123 122.21 414.403 125.478L416.173 126.41C417.866 123.192 419.358 120.886 420.643 119.44L419.149 118.112ZM414.288 125.944V171H416.288V125.944H414.288ZM415.288 170H405.56V172H415.288V170ZM406.56 171V127.224H404.56V171H406.56ZM406.56 127.224C406.56 123.578 406.045 120.681 404.892 118.664L403.156 119.656C404.051 121.223 404.56 123.702 404.56 127.224H406.56ZM404.918 118.713C404.373 117.621 403.605 116.761 402.605 116.183C401.611 115.607 400.448 115.344 399.16 115.344V117.344C400.176 117.344 400.976 117.55 401.603 117.913C402.225 118.273 402.737 118.822 403.13 119.607L404.918 118.713ZM399.16 115.344C396.74 115.344 394.614 116.276 392.821 118.069L394.235 119.483C395.684 118.034 397.313 117.344 399.16 117.344V115.344ZM392.821 118.069C391.168 119.722 389.574 122.228 388.016 125.516L389.824 126.372C391.338 123.175 392.816 120.902 394.235 119.483L392.821 118.069ZM387.92 125.944V171H389.92V125.944H387.92ZM388.92 170H378.424V172H388.92V170ZM480.518 171L479.597 171.389L479.854 172H480.518V171ZM454.278 108.792V107.792H452.771L453.357 109.181L454.278 108.792ZM464.902 108.792L465.829 108.416L465.575 107.792H464.902V108.792ZM479.238 144.12L478.311 144.496L478.315 144.505L479.238 144.12ZM482.822 153.336L481.881 153.676L481.886 153.687L481.89 153.698L482.822 153.336ZM486.278 162.424L485.341 162.772L485.583 163.424H486.278V162.424ZM486.79 162.424V163.424H487.485L487.727 162.772L486.79 162.424ZM490.118 153.336L491.059 153.676L491.059 153.676L490.118 153.336ZM493.574 144.12L492.647 143.744L492.645 143.751L492.642 143.758L493.574 144.12ZM507.91 108.792V107.792H507.237L506.983 108.416L507.91 108.792ZM518.022 108.792L518.946 109.174L519.518 107.792H518.022V108.792ZM492.294 171V172H492.963L493.218 171.382L492.294 171ZM481.439 170.611L455.199 108.403L453.357 109.181L479.597 171.389L481.439 170.611ZM454.278 109.792H464.902V107.792H454.278V109.792ZM463.975 109.168L478.311 144.496L480.165 143.744L465.829 108.416L463.975 109.168ZM478.315 144.505C479.589 147.562 480.778 150.619 481.881 153.676L483.763 152.996C482.648 149.909 481.447 146.822 480.161 143.735L478.315 144.505ZM481.89 153.698C483.083 156.766 484.233 159.79 485.341 162.772L487.215 162.076C486.104 159.084 484.95 156.05 483.754 152.974L481.89 153.698ZM486.278 163.424H486.79V161.424H486.278V163.424ZM487.727 162.772C488.838 159.783 489.948 156.75 491.059 153.676L489.177 152.996C488.069 156.066 486.961 159.092 485.853 162.076L487.727 162.772ZM491.059 153.676C492.165 150.611 493.314 147.547 494.506 144.482L492.642 143.758C491.444 146.837 490.29 149.917 489.177 152.996L491.059 153.676ZM494.501 144.496L508.837 109.168L506.983 108.416L492.647 143.744L494.501 144.496ZM507.91 109.792H518.022V107.792H507.91V109.792ZM517.098 108.41L491.37 170.618L493.218 171.382L518.946 109.174L517.098 108.41ZM492.294 170H480.518V172H492.294V170Z" fill="#05DF72" mask="url(#path-12-outside-6_2_51)"/>
<mask id="path-14-outside-7_2_51" maskUnits="userSpaceOnUse" x="522" y="75" width="36" height="49" fill="black">
<rect fill="white" x="522" y="75" width="36" height="49"/>
<path d="M524.256 123V119.472C529.44 114.912 533.808 110.904 537.36 107.448C540.96 103.944 543.696 100.8 545.568 98.016C547.44 95.232 548.376 92.568 548.376 90.024C548.376 87.384 547.56 85.224 545.928 83.544C544.296 81.864 541.776 81.024 538.368 81.024C536.208 81.024 534.192 81.552 532.32 82.608C530.496 83.664 528.84 84.984 527.352 86.568L523.968 83.184C526.032 81.072 528.24 79.392 530.592 78.144C532.992 76.848 535.824 76.2 539.088 76.2C542.16 76.2 544.8 76.776 547.008 77.928C549.264 79.032 550.992 80.592 552.192 82.608C553.44 84.624 554.064 87 554.064 89.736C554.064 92.616 553.176 95.52 551.4 98.448C549.624 101.376 547.128 104.472 543.912 107.736C540.744 110.952 537.072 114.48 532.896 118.32C534.336 118.176 535.776 118.08 537.216 118.032C538.656 117.936 540.072 117.888 541.464 117.888H556.584V123H524.256Z"/>
</mask>
<path d="M524.256 123V119.472C529.44 114.912 533.808 110.904 537.36 107.448C540.96 103.944 543.696 100.8 545.568 98.016C547.44 95.232 548.376 92.568 548.376 90.024C548.376 87.384 547.56 85.224 545.928 83.544C544.296 81.864 541.776 81.024 538.368 81.024C536.208 81.024 534.192 81.552 532.32 82.608C530.496 83.664 528.84 84.984 527.352 86.568L523.968 83.184C526.032 81.072 528.24 79.392 530.592 78.144C532.992 76.848 535.824 76.2 539.088 76.2C542.16 76.2 544.8 76.776 547.008 77.928C549.264 79.032 550.992 80.592 552.192 82.608C553.44 84.624 554.064 87 554.064 89.736C554.064 92.616 553.176 95.52 551.4 98.448C549.624 101.376 547.128 104.472 543.912 107.736C540.744 110.952 537.072 114.48 532.896 118.32C534.336 118.176 535.776 118.08 537.216 118.032C538.656 117.936 540.072 117.888 541.464 117.888H556.584V123H524.256Z" fill="#05DF72"/>
<path d="M524.256 123H523.256V124H524.256V123ZM524.256 119.472L523.596 118.721L523.256 119.02V119.472H524.256ZM537.36 107.448L538.057 108.165L538.057 108.165L537.36 107.448ZM545.568 98.016L546.398 98.574L546.398 98.574L545.568 98.016ZM545.928 83.544L546.645 82.8472L546.645 82.8472L545.928 83.544ZM532.32 82.608L531.829 81.737L531.819 81.7426L532.32 82.608ZM527.352 86.568L526.645 87.2751L527.374 88.0047L528.081 87.2527L527.352 86.568ZM523.968 83.184L523.253 82.4851L522.562 83.1921L523.261 83.8911L523.968 83.184ZM530.592 78.144L531.061 79.0274L531.067 79.0239L530.592 78.144ZM547.008 77.928L546.545 78.8146L546.557 78.8205L546.568 78.8262L547.008 77.928ZM552.192 82.608L551.333 83.1195L551.337 83.127L551.342 83.1344L552.192 82.608ZM551.4 98.448L550.545 97.9294L550.545 97.9294L551.4 98.448ZM543.912 107.736L543.2 107.034L543.2 107.034L543.912 107.736ZM532.896 118.32L532.219 117.584L530.012 119.613L532.996 119.315L532.896 118.32ZM537.216 118.032L537.249 119.031L537.266 119.031L537.283 119.03L537.216 118.032ZM556.584 117.888H557.584V116.888H556.584V117.888ZM556.584 123V124H557.584V123H556.584ZM525.256 123V119.472H523.256V123H525.256ZM524.916 120.223C530.109 115.656 534.49 111.636 538.057 108.165L536.663 106.731C533.126 110.172 528.771 114.168 523.596 118.721L524.916 120.223ZM538.057 108.165C541.685 104.634 544.473 101.436 546.398 98.574L544.738 97.458C542.919 100.164 540.235 103.254 536.663 106.731L538.057 108.165ZM546.398 98.574C548.346 95.6768 549.376 92.8211 549.376 90.024H547.376C547.376 92.3149 546.534 94.7872 544.738 97.458L546.398 98.574ZM549.376 90.024C549.376 87.1597 548.482 84.7381 546.645 82.8472L545.211 84.2408C546.638 85.7099 547.376 87.6083 547.376 90.024H549.376ZM546.645 82.8472C544.753 80.8998 541.923 80.024 538.368 80.024V82.024C541.629 82.024 543.839 82.8282 545.211 84.2408L546.645 82.8472ZM538.368 80.024C536.037 80.024 533.851 80.596 531.829 81.737L532.811 83.479C534.533 82.508 536.379 82.024 538.368 82.024V80.024ZM531.819 81.7426C529.908 82.8489 528.176 84.2305 526.623 85.8833L528.081 87.2527C529.504 85.7375 531.084 84.4791 532.821 83.4734L531.819 81.7426ZM528.059 85.8609L524.675 82.4769L523.261 83.8911L526.645 87.2751L528.059 85.8609ZM524.683 83.8829C526.683 81.8368 528.809 80.222 531.061 79.0273L530.123 77.2606C527.671 78.562 525.381 80.3072 523.253 82.4851L524.683 83.8829ZM531.067 79.0239C533.295 77.8208 535.957 77.2 539.088 77.2V75.2C535.691 75.2 532.689 75.8751 530.117 77.2641L531.067 79.0239ZM539.088 77.2C542.036 77.2 544.51 77.7525 546.545 78.8146L547.471 77.0414C545.09 75.7995 542.284 75.2 539.088 75.2V77.2ZM546.568 78.8262C548.663 79.8511 550.239 81.2824 551.333 83.1195L553.051 82.0965C551.745 79.9016 549.865 78.2129 547.448 77.0298L546.568 78.8262ZM551.342 83.1344C552.478 84.9691 553.064 87.1568 553.064 89.736H555.064C555.064 86.8432 554.402 84.2789 553.042 82.0816L551.342 83.1344ZM553.064 89.736C553.064 92.4011 552.244 95.1279 550.545 97.9294L552.255 98.9666C554.108 95.9121 555.064 92.8309 555.064 89.736H553.064ZM550.545 97.9294C548.82 100.773 546.378 103.808 543.2 107.034L544.624 108.438C547.878 105.136 550.428 101.979 552.255 98.9666L550.545 97.9294ZM543.2 107.034C540.046 110.236 536.386 113.752 532.219 117.584L533.573 119.056C537.758 115.208 541.442 111.668 544.624 108.438L543.2 107.034ZM532.996 119.315C534.414 119.173 535.832 119.079 537.249 119.031L537.183 117.033C535.72 117.081 534.258 117.179 532.796 117.325L532.996 119.315ZM537.283 119.03C538.701 118.935 540.095 118.888 541.464 118.888V116.888C540.049 116.888 538.611 116.937 537.149 117.034L537.283 119.03ZM541.464 118.888H556.584V116.888H541.464V118.888ZM555.584 117.888V123H557.584V117.888H555.584ZM556.584 122H524.256V124H556.584V122Z" fill="#05DF72" mask="url(#path-14-outside-7_2_51)"/>
</svg>
