<svg width="276" height="264" viewBox="0 0 276 264" fill="none" xmlns="http://www.w3.org/2000/svg">
<mask id="path-1-outside-1_2_42" maskUnits="userSpaceOnUse" x="10" y="106" width="61" height="93" fill="black">
<rect fill="white" x="10" y="106" width="61" height="93"/>
<path d="M11.904 197.24V108.792H20.608L21.504 116.728H21.888C24.7893 113.997 28.1173 111.736 31.872 109.944C35.712 108.152 39.552 107.256 43.392 107.256C49.024 107.256 53.7173 108.579 57.472 111.224C61.312 113.784 64.2133 117.453 66.176 122.232C68.1387 126.925 69.12 132.515 69.12 139C69.12 145.997 67.7973 152.013 65.152 157.048C62.5067 162.083 59.0507 165.923 54.784 168.568C50.5173 171.213 45.8667 172.536 40.832 172.536C38.016 172.536 34.9013 171.853 31.488 170.488C28.16 169.037 25.088 167.032 22.272 164.472H21.888L22.4 176.248V197.24H11.904ZM39.04 163.704C42.7093 163.704 45.9947 162.723 48.896 160.76C51.7973 158.797 54.0587 155.981 55.68 152.312C57.3867 148.557 58.24 144.12 58.24 139C58.24 134.477 57.6427 130.509 56.448 127.096C55.2533 123.597 53.376 120.909 50.816 119.032C48.256 117.069 44.8853 116.088 40.704 116.088C37.888 116.088 34.9013 116.856 31.744 118.392C28.672 119.843 25.5573 122.189 22.4 125.432V156.408C25.3867 159.053 28.3733 160.931 31.36 162.04C34.432 163.149 36.992 163.704 39.04 163.704Z"/>
</mask>
<path d="M11.904 197.24V108.792H20.608L21.504 116.728H21.888C24.7893 113.997 28.1173 111.736 31.872 109.944C35.712 108.152 39.552 107.256 43.392 107.256C49.024 107.256 53.7173 108.579 57.472 111.224C61.312 113.784 64.2133 117.453 66.176 122.232C68.1387 126.925 69.12 132.515 69.12 139C69.12 145.997 67.7973 152.013 65.152 157.048C62.5067 162.083 59.0507 165.923 54.784 168.568C50.5173 171.213 45.8667 172.536 40.832 172.536C38.016 172.536 34.9013 171.853 31.488 170.488C28.16 169.037 25.088 167.032 22.272 164.472H21.888L22.4 176.248V197.24H11.904ZM39.04 163.704C42.7093 163.704 45.9947 162.723 48.896 160.76C51.7973 158.797 54.0587 155.981 55.68 152.312C57.3867 148.557 58.24 144.12 58.24 139C58.24 134.477 57.6427 130.509 56.448 127.096C55.2533 123.597 53.376 120.909 50.816 119.032C48.256 117.069 44.8853 116.088 40.704 116.088C37.888 116.088 34.9013 116.856 31.744 118.392C28.672 119.843 25.5573 122.189 22.4 125.432V156.408C25.3867 159.053 28.3733 160.931 31.36 162.04C34.432 163.149 36.992 163.704 39.04 163.704Z" fill="#05DF72"/>
<path d="M11.904 197.24H10.904V198.24H11.904V197.24ZM11.904 108.792V107.792H10.904V108.792H11.904ZM20.608 108.792L21.6017 108.68L21.5015 107.792H20.608V108.792ZM21.504 116.728L20.5103 116.84L20.6106 117.728H21.504V116.728ZM21.888 116.728V117.728H22.2846L22.5734 117.456L21.888 116.728ZM31.872 109.944L31.4491 109.038L31.4413 109.042L31.872 109.944ZM57.472 111.224L56.8961 112.041L56.9066 112.049L56.9173 112.056L57.472 111.224ZM66.176 122.232L65.251 122.612L65.2534 122.618L66.176 122.232ZM65.152 157.048L64.2668 156.583L64.2668 156.583L65.152 157.048ZM54.784 168.568L55.3109 169.418L55.3109 169.418L54.784 168.568ZM31.488 170.488L31.0884 171.405L31.1024 171.411L31.1166 171.416L31.488 170.488ZM22.272 164.472L22.9447 163.732L22.6586 163.472H22.272V164.472ZM21.888 164.472V163.472H20.8436L20.8889 164.515L21.888 164.472ZM22.4 176.248H23.4V176.226L23.3991 176.205L22.4 176.248ZM22.4 197.24V198.24H23.4V197.24H22.4ZM48.896 160.76L49.4563 161.588L49.4563 161.588L48.896 160.76ZM55.68 152.312L54.7696 151.898L54.7653 151.908L55.68 152.312ZM56.448 127.096L55.5016 127.419L55.5041 127.426L56.448 127.096ZM50.816 119.032L50.2076 119.826L50.216 119.832L50.2246 119.838L50.816 119.032ZM31.744 118.392L32.171 119.296L32.1815 119.291L31.744 118.392ZM22.4 125.432L21.6835 124.734L21.4 125.026V125.432H22.4ZM22.4 156.408H21.4V156.858L21.737 157.157L22.4 156.408ZM31.36 162.04L31.0118 162.977L31.0204 162.981L31.36 162.04ZM12.904 197.24V108.792H10.904V197.24H12.904ZM11.904 109.792H20.608V107.792H11.904V109.792ZM19.6143 108.904L20.5103 116.84L22.4977 116.616L21.6017 108.68L19.6143 108.904ZM21.504 117.728H21.888V115.728H21.504V117.728ZM22.5734 117.456C25.3961 114.8 28.6373 112.596 32.3027 110.846L31.4413 109.042C27.5974 110.876 24.1826 113.195 21.2026 116L22.5734 117.456ZM32.2949 110.85C36.0163 109.114 39.7127 108.256 43.392 108.256V106.256C39.3913 106.256 35.4077 107.19 31.4491 109.038L32.2949 110.85ZM43.392 108.256C48.8651 108.256 53.3449 109.54 56.8961 112.041L58.048 110.407C54.0898 107.618 49.1829 106.256 43.392 106.256V108.256ZM56.9173 112.056C60.5722 114.493 63.3546 117.995 65.251 122.612L67.101 121.852C65.0721 116.912 62.0518 113.075 58.0267 110.392L56.9173 112.056ZM65.2534 122.618C67.153 127.16 68.12 132.612 68.12 139H70.12C70.12 132.417 69.1243 126.69 67.0986 121.846L65.2534 122.618ZM68.12 139C68.12 145.872 66.8213 151.721 64.2668 156.583L66.0372 157.513C68.7734 152.306 70.12 146.123 70.12 139H68.12ZM64.2668 156.583C61.6932 161.481 58.3528 165.179 54.2571 167.718L55.3109 169.418C59.7485 166.667 63.3202 162.684 66.0372 157.513L64.2668 156.583ZM54.2571 167.718C50.1491 170.265 45.681 171.536 40.832 171.536V173.536C46.0523 173.536 50.8855 172.162 55.3109 169.418L54.2571 167.718ZM40.832 171.536C38.1756 171.536 35.1889 170.891 31.8594 169.56L31.1166 171.416C34.6138 172.815 37.8564 173.536 40.832 173.536V171.536ZM31.8876 169.571C28.6644 168.166 25.6838 166.222 22.9447 163.732L21.5993 165.212C24.4922 167.842 27.6556 169.908 31.0884 171.405L31.8876 169.571ZM22.272 163.472H21.888V165.472H22.272V163.472ZM20.8889 164.515L21.4009 176.291L23.3991 176.205L22.8871 164.429L20.8889 164.515ZM21.4 176.248V197.24H23.4V176.248H21.4ZM22.4 196.24H11.904V198.24H22.4V196.24ZM39.04 164.704C42.899 164.704 46.3814 163.668 49.4563 161.588L48.3357 159.932C45.6079 161.777 42.5196 162.704 39.04 162.704V164.704ZM49.4563 161.588C52.5349 159.506 54.9087 156.532 56.5947 152.716L54.7653 151.908C53.2086 155.431 51.0598 158.089 48.3357 159.932L49.4563 161.588ZM56.5904 152.726C58.3686 148.814 59.24 144.229 59.24 139H57.24C57.24 144.011 56.4048 148.301 54.7696 151.898L56.5904 152.726ZM59.24 139C59.24 134.392 58.6317 130.308 57.3919 126.766L55.5041 127.426C56.6537 130.711 57.24 134.563 57.24 139H59.24ZM57.3944 126.773C56.1448 123.113 54.1582 120.243 51.4074 118.226L50.2246 119.838C52.5938 121.576 54.3619 124.081 55.5017 127.419L57.3944 126.773ZM51.4244 118.238C48.6441 116.107 45.0398 115.088 40.704 115.088V117.088C44.7309 117.088 47.8679 118.032 50.2076 119.826L51.4244 118.238ZM40.704 115.088C37.7037 115.088 34.5673 115.906 31.3065 117.493L32.1815 119.291C35.2353 117.806 38.0723 117.088 40.704 117.088V115.088ZM31.317 117.488C28.1077 119.003 24.8982 121.433 21.6835 124.734L23.1165 126.13C26.2165 122.946 29.2363 120.682 32.171 119.296L31.317 117.488ZM21.4 125.432V156.408H23.4V125.432H21.4ZM21.737 157.157C24.7936 159.864 27.8843 161.816 31.0118 162.977L31.7082 161.103C28.8623 160.046 25.9797 158.243 23.063 155.659L21.737 157.157ZM31.0204 162.981C34.1444 164.109 36.8282 164.704 39.04 164.704V162.704C37.1559 162.704 34.7196 162.19 31.6996 161.099L31.0204 162.981Z" fill="#05DF72" mask="url(#path-1-outside-1_2_42)"/>
<mask id="path-3-outside-2_2_42" maskUnits="userSpaceOnUse" x="96" y="123" width="58" height="38" fill="black">
<rect fill="white" x="96" y="123" width="58" height="38"/>
<path d="M97.88 132.032V124.096H152.92V132.032H97.88ZM97.88 159.424V151.488H152.92V159.424H97.88Z"/>
</mask>
<path d="M97.88 132.032V124.096H152.92V132.032H97.88ZM97.88 159.424V151.488H152.92V159.424H97.88Z" fill="#05DF72"/>
<path d="M97.88 132.032H96.88V133.032H97.88V132.032ZM97.88 124.096V123.096H96.88V124.096H97.88ZM152.92 124.096H153.92V123.096H152.92V124.096ZM152.92 132.032V133.032H153.92V132.032H152.92ZM97.88 159.424H96.88V160.424H97.88V159.424ZM97.88 151.488V150.488H96.88V151.488H97.88ZM152.92 151.488H153.92V150.488H152.92V151.488ZM152.92 159.424V160.424H153.92V159.424H152.92ZM98.88 132.032V124.096H96.88V132.032H98.88ZM97.88 125.096H152.92V123.096H97.88V125.096ZM151.92 124.096V132.032H153.92V124.096H151.92ZM152.92 131.032H97.88V133.032H152.92V131.032ZM98.88 159.424V151.488H96.88V159.424H98.88ZM97.88 152.488H152.92V150.488H97.88V152.488ZM151.92 151.488V159.424H153.92V151.488H151.92ZM152.92 158.424H97.88V160.424H152.92V158.424Z" fill="#05DF72" mask="url(#path-3-outside-2_2_42)"/>
<mask id="path-5-outside-3_2_42" maskUnits="userSpaceOnUse" x="193" y="61" width="67" height="66" fill="black">
<rect fill="white" x="193" y="61" width="67" height="66"/>
<path d="M194.424 126V63.792H202.872L203.768 71.984H204.024C205.645 69.0827 207.523 66.736 209.656 64.944C211.789 63.152 214.648 62.256 218.232 62.256C221.304 62.256 223.821 63.152 225.784 64.944C227.747 66.736 229.155 69.424 230.008 73.008C231.8 69.68 233.763 67.0773 235.896 65.2C238.115 63.2373 241.016 62.256 244.6 62.256C248.952 62.256 252.323 63.92 254.712 67.248C257.187 70.4907 258.424 75.2267 258.424 81.456V126H247.928V82.224C247.928 74.9707 245.709 71.344 241.272 71.344C239.139 71.344 237.347 72.1547 235.896 73.776C234.531 75.312 232.995 77.7013 231.288 80.944V126H221.56V82.224C221.56 78.64 221.048 75.952 220.024 74.16C219.085 72.2827 217.464 71.344 215.16 71.344C213.027 71.344 211.149 72.1547 209.528 73.776C207.992 75.312 206.456 77.7013 204.92 80.944V126H194.424Z"/>
</mask>
<path d="M194.424 126V63.792H202.872L203.768 71.984H204.024C205.645 69.0827 207.523 66.736 209.656 64.944C211.789 63.152 214.648 62.256 218.232 62.256C221.304 62.256 223.821 63.152 225.784 64.944C227.747 66.736 229.155 69.424 230.008 73.008C231.8 69.68 233.763 67.0773 235.896 65.2C238.115 63.2373 241.016 62.256 244.6 62.256C248.952 62.256 252.323 63.92 254.712 67.248C257.187 70.4907 258.424 75.2267 258.424 81.456V126H247.928V82.224C247.928 74.9707 245.709 71.344 241.272 71.344C239.139 71.344 237.347 72.1547 235.896 73.776C234.531 75.312 232.995 77.7013 231.288 80.944V126H221.56V82.224C221.56 78.64 221.048 75.952 220.024 74.16C219.085 72.2827 217.464 71.344 215.16 71.344C213.027 71.344 211.149 72.1547 209.528 73.776C207.992 75.312 206.456 77.7013 204.92 80.944V126H194.424Z" fill="#05DF72"/>
<path d="M194.424 126H193.424V127H194.424V126ZM194.424 63.792V62.792H193.424V63.792H194.424ZM202.872 63.792L203.866 63.6833L203.769 62.792H202.872V63.792ZM203.768 71.984L202.774 72.0927L202.871 72.984H203.768V71.984ZM204.024 71.984V72.984H204.611L204.897 72.4718L204.024 71.984ZM209.656 64.944L209.013 64.1783L209.013 64.1783L209.656 64.944ZM230.008 73.008L229.035 73.2396L229.643 75.7943L230.888 73.4821L230.008 73.008ZM235.896 65.2L236.557 65.9507L236.559 65.949L235.896 65.2ZM254.712 67.248L253.9 67.8312L253.908 67.8431L253.917 67.8547L254.712 67.248ZM258.424 126V127H259.424V126H258.424ZM247.928 126H246.928V127H247.928V126ZM235.896 73.776L235.151 73.1092L235.149 73.1116L235.896 73.776ZM231.288 80.944L230.403 80.4782L230.288 80.6969V80.944H231.288ZM231.288 126V127H232.288V126H231.288ZM221.56 126H220.56V127H221.56V126ZM220.024 74.16L219.13 74.6072L219.142 74.632L219.156 74.6561L220.024 74.16ZM209.528 73.776L208.821 73.0689L209.528 73.776ZM204.92 80.944L204.016 80.5159L203.92 80.7191V80.944H204.92ZM204.92 126V127H205.92V126H204.92ZM195.424 126V63.792H193.424V126H195.424ZM194.424 64.792H202.872V62.792H194.424V64.792ZM201.878 63.9007L202.774 72.0927L204.762 71.8753L203.866 63.6833L201.878 63.9007ZM203.768 72.984H204.024V70.984H203.768V72.984ZM204.897 72.4718C206.47 69.6564 208.275 67.4103 210.299 65.7097L209.013 64.1783C206.771 66.0617 204.82 68.509 203.151 71.4962L204.897 72.4718ZM210.299 65.7097C212.206 64.108 214.815 63.256 218.232 63.256V61.256C214.481 61.256 211.373 62.196 209.013 64.1783L210.299 65.7097ZM218.232 63.256C221.096 63.256 223.36 64.0848 225.11 65.6825L226.458 64.2055C224.283 62.2192 221.512 61.256 218.232 61.256V63.256ZM225.11 65.6825C226.877 67.2963 228.211 69.7777 229.035 73.2396L230.981 72.7764C230.098 69.0703 228.616 66.1757 226.458 64.2055L225.11 65.6825ZM230.888 73.4821C232.642 70.2262 234.536 67.7285 236.557 65.9507L235.235 64.4493C232.989 66.4262 230.958 69.1338 229.128 72.5339L230.888 73.4821ZM236.559 65.949C238.558 64.1804 241.206 63.256 244.6 63.256V61.256C240.826 61.256 237.671 62.2942 235.233 64.451L236.559 65.949ZM244.6 63.256C248.653 63.256 251.712 64.7834 253.9 67.8312L255.524 66.6648C252.934 63.0566 249.251 61.256 244.6 61.256V63.256ZM253.917 67.8547C256.205 70.8526 257.424 75.3366 257.424 81.456H259.424C259.424 75.1167 258.168 70.1288 255.507 66.6413L253.917 67.8547ZM257.424 81.456V126H259.424V81.456H257.424ZM258.424 125H247.928V127H258.424V125ZM248.928 126V82.224H246.928V126H248.928ZM248.928 82.224C248.928 78.5279 248.369 75.5879 247.117 73.5421C245.817 71.4163 243.82 70.344 241.272 70.344V72.344C243.161 72.344 244.493 73.085 245.411 74.5859C246.378 76.1668 246.928 78.6668 246.928 82.224H248.928ZM241.272 70.344C238.848 70.344 236.787 71.2806 235.151 73.1092L236.641 74.4428C237.906 73.0287 239.43 72.344 241.272 72.344V70.344ZM235.149 73.1116C233.703 74.7376 232.123 77.2105 230.403 80.4782L232.173 81.4097C233.866 78.1922 235.358 75.8864 236.643 74.4404L235.149 73.1116ZM230.288 80.944V126H232.288V80.944H230.288ZM231.288 125H221.56V127H231.288V125ZM222.56 126V82.224H220.56V126H222.56ZM222.56 82.224C222.56 78.5775 222.045 75.6809 220.892 73.6639L219.156 74.6561C220.051 76.2231 220.56 78.7025 220.56 82.224H222.56ZM220.918 73.7128C220.373 72.621 219.605 71.7614 218.605 71.1826C217.611 70.6069 216.448 70.344 215.16 70.344V72.344C216.176 72.344 216.976 72.5504 217.603 72.9134C218.225 73.2733 218.737 73.8216 219.13 74.6072L220.918 73.7128ZM215.16 70.344C212.74 70.344 210.614 71.2755 208.821 73.0689L210.235 74.4831C211.684 73.0338 213.313 72.344 215.16 72.344V70.344ZM208.821 73.0689C207.168 74.7216 205.574 77.2281 204.016 80.5159L205.824 81.3721C207.338 78.1746 208.816 75.9024 210.235 74.4831L208.821 73.0689ZM203.92 80.944V126H205.92V80.944H203.92ZM204.92 125H194.424V127H204.92V125Z" fill="#05DF72" mask="url(#path-5-outside-3_2_42)"/>
<mask id="path-7-outside-4_2_42" maskUnits="userSpaceOnUse" x="192" y="165" width="67" height="65" fill="black">
<rect fill="white" x="192" y="165" width="67" height="65"/>
<path d="M219.768 229L193.528 166.792H204.152L218.488 202.12C219.768 205.192 220.963 208.264 222.072 211.336C223.267 214.408 224.419 217.437 225.528 220.424H226.04C227.149 217.437 228.259 214.408 229.368 211.336C230.477 208.264 231.629 205.192 232.824 202.12L247.16 166.792H257.272L231.544 229H219.768Z"/>
</mask>
<path d="M219.768 229L193.528 166.792H204.152L218.488 202.12C219.768 205.192 220.963 208.264 222.072 211.336C223.267 214.408 224.419 217.437 225.528 220.424H226.04C227.149 217.437 228.259 214.408 229.368 211.336C230.477 208.264 231.629 205.192 232.824 202.12L247.16 166.792H257.272L231.544 229H219.768Z" fill="#05DF72"/>
<path d="M219.768 229L218.847 229.389L219.104 230H219.768V229ZM193.528 166.792V165.792H192.021L192.607 167.181L193.528 166.792ZM204.152 166.792L205.079 166.416L204.825 165.792H204.152V166.792ZM218.488 202.12L217.561 202.496L217.565 202.505L218.488 202.12ZM222.072 211.336L221.131 211.676L221.136 211.687L221.14 211.698L222.072 211.336ZM225.528 220.424L224.591 220.772L224.833 221.424H225.528V220.424ZM226.04 220.424V221.424H226.735L226.977 220.772L226.04 220.424ZM229.368 211.336L230.309 211.676L230.309 211.676L229.368 211.336ZM232.824 202.12L231.897 201.744L231.895 201.751L231.892 201.758L232.824 202.12ZM247.16 166.792V165.792H246.487L246.233 166.416L247.16 166.792ZM257.272 166.792L258.196 167.174L258.768 165.792H257.272V166.792ZM231.544 229V230H232.213L232.468 229.382L231.544 229ZM220.689 228.611L194.449 166.403L192.607 167.181L218.847 229.389L220.689 228.611ZM193.528 167.792H204.152V165.792H193.528V167.792ZM203.225 167.168L217.561 202.496L219.415 201.744L205.079 166.416L203.225 167.168ZM217.565 202.505C218.839 205.562 220.028 208.619 221.131 211.676L223.013 210.996C221.898 207.909 220.697 204.822 219.411 201.735L217.565 202.505ZM221.14 211.698C222.333 214.766 223.483 217.79 224.591 220.772L226.465 220.076C225.354 217.084 224.2 214.05 223.004 210.974L221.14 211.698ZM225.528 221.424H226.04V219.424H225.528V221.424ZM226.977 220.772C228.088 217.783 229.198 214.75 230.309 211.676L228.427 210.996C227.319 214.066 226.211 217.092 225.103 220.076L226.977 220.772ZM230.309 211.676C231.415 208.611 232.564 205.547 233.756 202.482L231.892 201.758C230.694 204.837 229.54 207.917 228.427 210.996L230.309 211.676ZM233.751 202.496L248.087 167.168L246.233 166.416L231.897 201.744L233.751 202.496ZM247.16 167.792H257.272V165.792H247.16V167.792ZM256.348 166.41L230.62 228.618L232.468 229.382L258.196 167.174L256.348 166.41ZM231.544 228H219.768V230H231.544V228Z" fill="#05DF72" mask="url(#path-7-outside-4_2_42)"/>
<path d="M180 144.5H275.5" stroke="#05DF72" stroke-width="12"/>
</svg>
