<svg width="291" height="286" viewBox="0 0 291 286" fill="none" xmlns="http://www.w3.org/2000/svg">
<mask id="path-1-outside-1_2_26" maskUnits="userSpaceOnUse" x="12" y="86" width="59" height="86" fill="black">
<rect fill="white" x="12" y="86" width="59" height="86"/>
<path d="M13.056 171V87.032H38.4C44.6293 87.032 50.048 87.8427 54.656 89.464C59.3493 91 62.976 93.56 65.536 97.144C68.1813 100.728 69.504 105.592 69.504 111.736C69.504 117.624 68.1813 122.488 65.536 126.328C62.976 130.083 59.3493 132.941 54.656 134.904C49.9627 136.781 44.544 137.72 38.4 137.72H23.68V171H13.056ZM23.68 129.016H37.12C44.4587 129.016 49.8773 127.608 53.376 124.792C56.96 121.976 58.752 117.624 58.752 111.736C58.752 105.677 56.96 101.496 53.376 99.192C49.792 96.8027 44.3733 95.608 37.12 95.608H23.68V129.016Z"/>
</mask>
<path d="M13.056 171V87.032H38.4C44.6293 87.032 50.048 87.8427 54.656 89.464C59.3493 91 62.976 93.56 65.536 97.144C68.1813 100.728 69.504 105.592 69.504 111.736C69.504 117.624 68.1813 122.488 65.536 126.328C62.976 130.083 59.3493 132.941 54.656 134.904C49.9627 136.781 44.544 137.72 38.4 137.72H23.68V171H13.056ZM23.68 129.016H37.12C44.4587 129.016 49.8773 127.608 53.376 124.792C56.96 121.976 58.752 117.624 58.752 111.736C58.752 105.677 56.96 101.496 53.376 99.192C49.792 96.8027 44.3733 95.608 37.12 95.608H23.68V129.016Z" fill="#05DF72"/>
<path d="M13.056 171H12.056V172H13.056V171ZM13.056 87.032V86.032H12.056V87.032H13.056ZM54.656 89.464L54.3241 90.4073L54.3345 90.411L54.345 90.4144L54.656 89.464ZM65.536 97.144L64.7223 97.7252L64.7268 97.7316L64.7314 97.7378L65.536 97.144ZM65.536 126.328L64.7125 125.761L64.7098 125.765L65.536 126.328ZM54.656 134.904L55.0274 135.832L55.0346 135.83L55.0418 135.827L54.656 134.904ZM23.68 137.72V136.72H22.68V137.72H23.68ZM23.68 171V172H24.68V171H23.68ZM23.68 129.016H22.68V130.016H23.68V129.016ZM53.376 124.792L52.7581 124.006L52.749 124.013L53.376 124.792ZM53.376 99.192L52.8213 100.024L52.8282 100.029L52.8352 100.033L53.376 99.192ZM23.68 95.608V94.608H22.68V95.608H23.68ZM14.056 171V87.032H12.056V171H14.056ZM13.056 88.032H38.4V86.032H13.056V88.032ZM38.4 88.032C44.5459 88.032 49.8475 88.8322 54.3241 90.4073L54.9879 88.5207C50.2485 86.8531 44.7128 86.032 38.4 86.032V88.032ZM54.345 90.4144C58.8614 91.8925 62.3011 94.3355 64.7223 97.7252L66.3497 96.5628C63.651 92.7845 59.8373 90.1075 54.967 88.5136L54.345 90.4144ZM64.7314 97.7378C67.2096 101.095 68.504 105.726 68.504 111.736H70.504C70.504 105.458 69.153 100.361 66.3406 96.5501L64.7314 97.7378ZM68.504 111.736C68.504 117.475 67.216 122.127 64.7125 125.761L66.3595 126.895C69.1467 122.849 70.504 117.773 70.504 111.736H68.504ZM64.7098 125.765C62.2715 129.341 58.8071 132.084 54.2702 133.981L55.0418 135.827C59.8916 133.798 63.6805 130.824 66.3622 126.891L64.7098 125.765ZM54.2846 133.976C49.7319 135.797 44.4434 136.72 38.4 136.72V138.72C44.6446 138.72 50.1935 137.766 55.0274 135.832L54.2846 133.976ZM38.4 136.72H23.68V138.72H38.4V136.72ZM22.68 137.72V171H24.68V137.72H22.68ZM23.68 170H13.056V172H23.68V170ZM23.68 130.016H37.12V128.016H23.68V130.016ZM37.12 130.016C44.5529 130.016 50.2447 128.596 54.003 125.571L52.749 124.013C49.5099 126.62 44.3644 128.016 37.12 128.016V130.016ZM53.9938 125.578C57.8865 122.52 59.752 117.833 59.752 111.736H57.752C57.752 117.415 56.0335 121.432 52.7582 124.006L53.9938 125.578ZM59.752 111.736C59.752 105.493 57.8975 100.91 53.9168 98.3508L52.8352 100.033C56.0225 102.082 57.752 105.861 57.752 111.736H59.752ZM53.9307 98.3599C50.1046 95.8092 44.45 94.608 37.12 94.608V96.608C44.2967 96.608 49.4794 97.7961 52.8213 100.024L53.9307 98.3599ZM37.12 94.608H23.68V96.608H37.12V94.608ZM22.68 95.608V129.016H24.68V95.608H22.68Z" fill="#05DF72" mask="url(#path-1-outside-1_2_26)"/>
<mask id="path-3-outside-2_2_26" maskUnits="userSpaceOnUse" x="103" y="120" width="58" height="38" fill="black">
<rect fill="white" x="103" y="120" width="58" height="38"/>
<path d="M104.88 129.032V121.096H159.92V129.032H104.88ZM104.88 156.424V148.488H159.92V156.424H104.88Z"/>
</mask>
<path d="M104.88 129.032V121.096H159.92V129.032H104.88ZM104.88 156.424V148.488H159.92V156.424H104.88Z" fill="#05DF72"/>
<path d="M104.88 129.032H103.88V130.032H104.88V129.032ZM104.88 121.096V120.096H103.88V121.096H104.88ZM159.92 121.096H160.92V120.096H159.92V121.096ZM159.92 129.032V130.032H160.92V129.032H159.92ZM104.88 156.424H103.88V157.424H104.88V156.424ZM104.88 148.488V147.488H103.88V148.488H104.88ZM159.92 148.488H160.92V147.488H159.92V148.488ZM159.92 156.424V157.424H160.92V156.424H159.92ZM105.88 129.032V121.096H103.88V129.032H105.88ZM104.88 122.096H159.92V120.096H104.88V122.096ZM158.92 121.096V129.032H160.92V121.096H158.92ZM159.92 128.032H104.88V130.032H159.92V128.032ZM105.88 156.424V148.488H103.88V156.424H105.88ZM104.88 149.488H159.92V147.488H104.88V149.488ZM158.92 148.488V156.424H160.92V148.488H158.92ZM159.92 155.424H104.88V157.424H159.92V155.424Z" fill="#05DF72" mask="url(#path-3-outside-2_2_26)"/>
<mask id="path-5-outside-3_2_26" maskUnits="userSpaceOnUse" x="219" y="32" width="64" height="95" fill="black">
<rect fill="white" x="219" y="32" width="64" height="95"/>
<path d="M237.976 126V58.544C237.976 53.5093 238.872 49.1147 240.664 45.36C242.541 41.52 245.315 38.576 248.984 36.528C252.653 34.3947 257.347 33.328 263.064 33.328C266.136 33.328 269.123 33.6267 272.024 34.224C275.011 34.736 277.997 35.632 280.984 36.912L278.552 44.848C275.992 43.6533 273.603 42.8853 271.384 42.544C269.251 42.1173 266.819 41.904 264.088 41.904C258.541 41.904 254.531 43.3547 252.056 46.256C249.581 49.1573 248.344 53.1253 248.344 58.16V126H237.976ZM220.184 72.368V64.432L238.36 63.792H274.456V72.368H220.184Z"/>
</mask>
<path d="M237.976 126V58.544C237.976 53.5093 238.872 49.1147 240.664 45.36C242.541 41.52 245.315 38.576 248.984 36.528C252.653 34.3947 257.347 33.328 263.064 33.328C266.136 33.328 269.123 33.6267 272.024 34.224C275.011 34.736 277.997 35.632 280.984 36.912L278.552 44.848C275.992 43.6533 273.603 42.8853 271.384 42.544C269.251 42.1173 266.819 41.904 264.088 41.904C258.541 41.904 254.531 43.3547 252.056 46.256C249.581 49.1573 248.344 53.1253 248.344 58.16V126H237.976ZM220.184 72.368V64.432L238.36 63.792H274.456V72.368H220.184Z" fill="#05DF72"/>
<path d="M237.976 126H236.976V127H237.976V126ZM240.664 45.36L239.766 44.9208L239.762 44.9293L240.664 45.36ZM248.984 36.528L249.471 37.4012L249.479 37.3969L249.487 37.3925L248.984 36.528ZM272.024 34.224L271.822 35.2035L271.839 35.2068L271.855 35.2096L272.024 34.224ZM280.984 36.912L281.94 37.205L282.203 36.3465L281.378 35.9928L280.984 36.912ZM278.552 44.848L278.129 45.7542L279.171 46.2405L279.508 45.141L278.552 44.848ZM271.384 42.544L271.188 43.5246L271.21 43.529L271.232 43.5324L271.384 42.544ZM252.056 46.256L252.817 46.9049L252.817 46.9049L252.056 46.256ZM248.344 126V127H249.344V126H248.344ZM220.184 72.368H219.184V73.368H220.184V72.368ZM220.184 64.432L220.149 63.4326L219.184 63.4666V64.432H220.184ZM238.36 63.792V62.792H238.342L238.325 62.7926L238.36 63.792ZM274.456 63.792H275.456V62.792H274.456V63.792ZM274.456 72.368V73.368H275.456V72.368H274.456ZM238.976 126V58.544H236.976V126H238.976ZM238.976 58.544C238.976 53.6276 239.851 49.3856 241.566 45.7907L239.762 44.9293C237.893 48.8437 236.976 53.3911 236.976 58.544H238.976ZM241.562 45.7992C243.352 42.139 245.983 39.348 249.471 37.4012L248.497 35.6548C244.646 37.804 241.731 40.901 239.766 44.9208L241.562 45.7992ZM249.487 37.3925C252.959 35.3735 257.464 34.328 263.064 34.328V32.328C257.229 32.328 252.347 33.4158 248.481 35.6635L249.487 37.3925ZM263.064 34.328C266.071 34.328 268.99 34.6203 271.822 35.2035L272.226 33.2445C269.256 32.633 266.201 32.328 263.064 32.328V34.328ZM271.855 35.2096C274.759 35.7074 277.67 36.5798 280.59 37.8311L281.378 35.9928C278.324 34.6842 275.262 33.7646 272.193 33.2384L271.855 35.2096ZM280.028 36.619L277.596 44.555L279.508 45.141L281.94 37.205L280.028 36.619ZM278.975 43.9418C276.35 42.7169 273.869 41.9145 271.536 41.5556L271.232 43.5324C273.336 43.8561 275.634 44.5898 278.129 45.7542L278.975 43.9418ZM271.58 41.5634C269.368 41.1211 266.869 40.904 264.088 40.904V42.904C266.769 42.904 269.133 43.1136 271.188 43.5246L271.58 41.5634ZM264.088 40.904C258.385 40.904 254.033 42.3966 251.295 45.6071L252.817 46.9049C255.028 44.3127 258.698 42.904 264.088 42.904V40.904ZM251.295 45.607C248.623 48.7405 247.344 52.9646 247.344 58.16H249.344C249.344 53.286 250.54 49.5742 252.817 46.9049L251.295 45.607ZM247.344 58.16V126H249.344V58.16H247.344ZM248.344 125H237.976V127H248.344V125ZM221.184 72.368V64.432H219.184V72.368H221.184ZM220.219 65.4314L238.395 64.7914L238.325 62.7926L220.149 63.4326L220.219 65.4314ZM238.36 64.792H274.456V62.792H238.36V64.792ZM273.456 63.792V72.368H275.456V63.792H273.456ZM274.456 71.368H220.184V73.368H274.456V71.368Z" fill="#05DF72" mask="url(#path-5-outside-3_2_26)"/>
<path d="M206.5 153H291" stroke="#05DF72" stroke-width="12"/>
<mask id="path-8-outside-4_2_26" maskUnits="userSpaceOnUse" x="216" y="186" width="58" height="68" fill="black">
<rect fill="white" x="216" y="186" width="58" height="68"/>
<path d="M238.488 252.536C234.648 252.536 231.107 251.853 227.864 250.488C224.621 249.037 222.061 246.989 220.184 244.344C218.307 241.699 217.368 238.541 217.368 234.872C217.368 227.875 220.867 222.584 227.864 219C234.861 215.331 246.381 212.856 262.424 211.576C262.339 208.76 261.741 206.157 260.632 203.768C259.608 201.379 257.901 199.501 255.512 198.136C253.123 196.685 249.923 195.96 245.912 195.96C243.267 195.96 240.621 196.344 237.976 197.112C235.416 197.795 232.941 198.733 230.552 199.928C228.248 201.037 226.115 202.189 224.152 203.384L220.056 196.216C222.104 194.851 224.579 193.485 227.48 192.12C230.467 190.669 233.667 189.517 237.08 188.664C240.493 187.725 244.035 187.256 247.704 187.256C253.421 187.256 258.115 188.323 261.784 190.456C265.539 192.589 268.312 195.576 270.104 199.416C271.981 203.171 272.92 207.651 272.92 212.856V251H264.344L263.448 242.552H263.064C259.651 245.283 255.811 247.629 251.544 249.592C247.277 251.555 242.925 252.536 238.488 252.536ZM241.304 244.088C244.888 244.088 248.429 243.277 251.928 241.656C255.427 240.035 258.925 237.773 262.424 234.872V218.488C253.549 219.256 246.552 220.323 241.432 221.688C236.397 223.053 232.813 224.803 230.68 226.936C228.632 228.984 227.608 231.373 227.608 234.104C227.608 236.408 228.248 238.328 229.528 239.864C230.808 241.315 232.472 242.381 234.52 243.064C236.653 243.747 238.915 244.088 241.304 244.088Z"/>
</mask>
<path d="M238.488 252.536C234.648 252.536 231.107 251.853 227.864 250.488C224.621 249.037 222.061 246.989 220.184 244.344C218.307 241.699 217.368 238.541 217.368 234.872C217.368 227.875 220.867 222.584 227.864 219C234.861 215.331 246.381 212.856 262.424 211.576C262.339 208.76 261.741 206.157 260.632 203.768C259.608 201.379 257.901 199.501 255.512 198.136C253.123 196.685 249.923 195.96 245.912 195.96C243.267 195.96 240.621 196.344 237.976 197.112C235.416 197.795 232.941 198.733 230.552 199.928C228.248 201.037 226.115 202.189 224.152 203.384L220.056 196.216C222.104 194.851 224.579 193.485 227.48 192.12C230.467 190.669 233.667 189.517 237.08 188.664C240.493 187.725 244.035 187.256 247.704 187.256C253.421 187.256 258.115 188.323 261.784 190.456C265.539 192.589 268.312 195.576 270.104 199.416C271.981 203.171 272.92 207.651 272.92 212.856V251H264.344L263.448 242.552H263.064C259.651 245.283 255.811 247.629 251.544 249.592C247.277 251.555 242.925 252.536 238.488 252.536ZM241.304 244.088C244.888 244.088 248.429 243.277 251.928 241.656C255.427 240.035 258.925 237.773 262.424 234.872V218.488C253.549 219.256 246.552 220.323 241.432 221.688C236.397 223.053 232.813 224.803 230.68 226.936C228.632 228.984 227.608 231.373 227.608 234.104C227.608 236.408 228.248 238.328 229.528 239.864C230.808 241.315 232.472 242.381 234.52 243.064C236.653 243.747 238.915 244.088 241.304 244.088Z" fill="#05DF72"/>
<path d="M227.864 250.488L227.456 251.401L227.466 251.405L227.476 251.41L227.864 250.488ZM220.184 244.344L221 243.765L221 243.765L220.184 244.344ZM227.864 219L228.32 219.89L228.328 219.886L227.864 219ZM262.424 211.576L262.504 212.573L263.452 212.497L263.424 211.546L262.424 211.576ZM260.632 203.768L259.713 204.162L259.719 204.176L259.725 204.189L260.632 203.768ZM255.512 198.136L254.993 198.991L255.004 198.998L255.016 199.004L255.512 198.136ZM237.976 197.112L238.234 198.078L238.244 198.075L238.255 198.072L237.976 197.112ZM230.552 199.928L230.986 200.829L230.993 200.826L230.999 200.822L230.552 199.928ZM224.152 203.384L223.284 203.88L223.794 204.773L224.672 204.238L224.152 203.384ZM220.056 196.216L219.501 195.384L218.725 195.902L219.188 196.712L220.056 196.216ZM227.48 192.12L227.906 193.025L227.917 193.02L227.48 192.12ZM237.08 188.664L237.323 189.634L237.334 189.631L237.345 189.628L237.08 188.664ZM261.784 190.456L261.281 191.321L261.29 191.325L261.784 190.456ZM270.104 199.416L269.198 199.839L269.204 199.851L269.21 199.863L270.104 199.416ZM272.92 251V252H273.92V251H272.92ZM264.344 251L263.35 251.105L263.444 252H264.344V251ZM263.448 242.552L264.442 242.447L264.348 241.552H263.448V242.552ZM263.064 242.552V241.552H262.713L262.439 241.771L263.064 242.552ZM251.928 241.656L251.508 240.749L251.508 240.749L251.928 241.656ZM262.424 234.872L263.062 235.642L263.424 235.342V234.872H262.424ZM262.424 218.488H263.424V217.398L262.338 217.492L262.424 218.488ZM241.432 221.688L241.174 220.722L241.17 220.723L241.432 221.688ZM230.68 226.936L229.973 226.229L229.973 226.229L230.68 226.936ZM229.528 239.864L228.76 240.504L228.769 240.515L228.778 240.526L229.528 239.864ZM234.52 243.064L234.204 244.013L234.215 244.016L234.52 243.064ZM238.488 251.536C234.769 251.536 231.361 250.875 228.252 249.566L227.476 251.41C230.852 252.831 234.527 253.536 238.488 253.536V251.536ZM228.272 249.575C225.177 248.19 222.764 246.251 221 243.765L219.368 244.923C221.359 247.727 224.066 249.884 227.456 251.401L228.272 249.575ZM221 243.765C219.258 241.311 218.368 238.362 218.368 234.872H216.368C216.368 238.72 217.356 242.087 219.368 244.923L221 243.765ZM218.368 234.872C218.368 231.548 219.196 228.673 220.826 226.208C222.46 223.736 224.938 221.622 228.32 219.89L227.408 218.11C223.793 219.962 221.022 222.285 219.158 225.104C217.289 227.93 216.368 231.198 216.368 234.872H218.368ZM228.328 219.886C235.137 216.315 246.485 213.851 262.504 212.573L262.344 210.579C246.278 211.861 234.586 214.346 227.4 218.114L228.328 219.886ZM263.424 211.546C263.334 208.604 262.709 205.867 261.539 203.347L259.725 204.189C260.773 206.447 261.343 208.916 261.424 211.606L263.424 211.546ZM261.551 203.374C260.436 200.773 258.574 198.734 256.008 197.268L255.016 199.004C257.228 200.268 258.78 201.985 259.713 204.162L261.551 203.374ZM256.031 197.281C253.431 195.703 250.03 194.96 245.912 194.96V196.96C249.815 196.96 252.814 197.668 254.993 198.991L256.031 197.281ZM245.912 194.96C243.168 194.96 240.429 195.358 237.697 196.152L238.255 198.072C240.813 197.33 243.365 196.96 245.912 196.96V194.96ZM237.718 196.146C235.092 196.846 232.554 197.809 230.105 199.034L230.999 200.822C233.328 199.658 235.74 198.743 238.234 198.078L237.718 196.146ZM230.118 199.027C227.788 200.149 225.626 201.316 223.632 202.53L224.672 204.238C226.604 203.062 228.708 201.926 230.986 200.829L230.118 199.027ZM225.02 202.888L220.924 195.72L219.188 196.712L223.284 203.88L225.02 202.888ZM220.611 197.048C222.607 195.717 225.037 194.375 227.906 193.025L227.054 191.215C224.121 192.596 221.601 193.984 219.501 195.384L220.611 197.048ZM227.917 193.02C230.838 191.601 233.972 190.472 237.323 189.634L236.837 187.694C233.361 188.563 230.096 189.738 227.043 191.22L227.917 193.02ZM237.345 189.628C240.669 188.714 244.121 188.256 247.704 188.256V186.256C243.948 186.256 240.318 186.737 236.815 187.7L237.345 189.628ZM247.704 188.256C253.304 188.256 257.809 189.302 261.281 191.321L262.287 189.591C258.421 187.344 253.539 186.256 247.704 186.256V188.256ZM261.29 191.325C264.868 193.358 267.495 196.191 269.198 199.839L271.01 198.993C269.129 194.961 266.209 191.82 262.278 189.587L261.29 191.325ZM269.21 199.863C271.003 203.45 271.92 207.769 271.92 212.856H273.92C273.92 207.532 272.96 202.892 270.998 198.969L269.21 199.863ZM271.92 212.856V251H273.92V212.856H271.92ZM272.92 250H264.344V252H272.92V250ZM265.338 250.895L264.442 242.447L262.454 242.657L263.35 251.105L265.338 250.895ZM263.448 241.552H263.064V243.552H263.448V241.552ZM262.439 241.771C259.094 244.447 255.324 246.752 251.126 248.684L251.962 250.5C256.297 248.506 260.207 246.118 263.689 243.333L262.439 241.771ZM251.126 248.684C246.983 250.589 242.773 251.536 238.488 251.536V253.536C243.078 253.536 247.572 252.52 251.962 250.5L251.126 248.684ZM241.304 245.088C245.044 245.088 248.728 244.241 252.348 242.563L251.508 240.749C248.13 242.314 244.732 243.088 241.304 243.088V245.088ZM252.348 242.563C255.938 240.9 259.509 238.589 263.062 235.642L261.786 234.102C258.342 236.958 254.915 239.169 251.508 240.749L252.348 242.563ZM263.424 234.872V218.488H261.424V234.872H263.424ZM262.338 217.492C253.439 218.262 246.376 219.335 241.174 220.722L241.69 222.654C246.728 221.311 253.66 220.25 262.51 219.484L262.338 217.492ZM241.17 220.723C236.074 222.105 232.29 223.912 229.973 226.229L231.387 227.643C233.337 225.693 236.72 224.002 241.694 222.653L241.17 220.723ZM229.973 226.229C227.75 228.452 226.608 231.091 226.608 234.104H228.608C228.608 231.656 229.514 229.516 231.387 227.643L229.973 226.229ZM226.608 234.104C226.608 236.604 227.308 238.762 228.76 240.504L230.296 239.224C229.188 237.894 228.608 236.212 228.608 234.104H226.608ZM228.778 240.526C230.188 242.123 232.008 243.281 234.204 244.013L234.836 242.115C232.936 241.482 231.428 240.506 230.278 239.202L228.778 240.526ZM234.215 244.016C236.453 244.733 238.818 245.088 241.304 245.088V243.088C239.011 243.088 236.853 242.761 234.825 242.112L234.215 244.016Z" fill="#05DF72" mask="url(#path-8-outside-4_2_26)"/>
</svg>
