<svg width="362" height="302" viewBox="0 0 362 302" fill="none" xmlns="http://www.w3.org/2000/svg">
<mask id="path-1-outside-1_2_14" maskUnits="userSpaceOnUse" x="9" y="106" width="58" height="68" fill="black">
<rect fill="white" x="9" y="106" width="58" height="68"/>
<path d="M31.488 172.536C27.648 172.536 24.1067 171.853 20.864 170.488C17.6213 169.037 15.0613 166.989 13.184 164.344C11.3067 161.699 10.368 158.541 10.368 154.872C10.368 147.875 13.8667 142.584 20.864 139C27.8613 135.331 39.3813 132.856 55.424 131.576C55.3387 128.76 54.7413 126.157 53.632 123.768C52.608 121.379 50.9013 119.501 48.512 118.136C46.1227 116.685 42.9227 115.96 38.912 115.96C36.2667 115.96 33.6213 116.344 30.976 117.112C28.416 117.795 25.9413 118.733 23.552 119.928C21.248 121.037 19.1147 122.189 17.152 123.384L13.056 116.216C15.104 114.851 17.5787 113.485 20.48 112.12C23.4667 110.669 26.6667 109.517 30.08 108.664C33.4933 107.725 37.0347 107.256 40.704 107.256C46.4213 107.256 51.1147 108.323 54.784 110.456C58.5387 112.589 61.312 115.576 63.104 119.416C64.9813 123.171 65.92 127.651 65.92 132.856V171H57.344L56.448 162.552H56.064C52.6507 165.283 48.8107 167.629 44.544 169.592C40.2773 171.555 35.9253 172.536 31.488 172.536ZM34.304 164.088C37.888 164.088 41.4293 163.277 44.928 161.656C48.4267 160.035 51.9253 157.773 55.424 154.872V138.488C46.5493 139.256 39.552 140.323 34.432 141.688C29.3973 143.053 25.8133 144.803 23.68 146.936C21.632 148.984 20.608 151.373 20.608 154.104C20.608 156.408 21.248 158.328 22.528 159.864C23.808 161.315 25.472 162.381 27.52 163.064C29.6533 163.747 31.9147 164.088 34.304 164.088Z"/>
</mask>
<path d="M31.488 172.536C27.648 172.536 24.1067 171.853 20.864 170.488C17.6213 169.037 15.0613 166.989 13.184 164.344C11.3067 161.699 10.368 158.541 10.368 154.872C10.368 147.875 13.8667 142.584 20.864 139C27.8613 135.331 39.3813 132.856 55.424 131.576C55.3387 128.76 54.7413 126.157 53.632 123.768C52.608 121.379 50.9013 119.501 48.512 118.136C46.1227 116.685 42.9227 115.96 38.912 115.96C36.2667 115.96 33.6213 116.344 30.976 117.112C28.416 117.795 25.9413 118.733 23.552 119.928C21.248 121.037 19.1147 122.189 17.152 123.384L13.056 116.216C15.104 114.851 17.5787 113.485 20.48 112.12C23.4667 110.669 26.6667 109.517 30.08 108.664C33.4933 107.725 37.0347 107.256 40.704 107.256C46.4213 107.256 51.1147 108.323 54.784 110.456C58.5387 112.589 61.312 115.576 63.104 119.416C64.9813 123.171 65.92 127.651 65.92 132.856V171H57.344L56.448 162.552H56.064C52.6507 165.283 48.8107 167.629 44.544 169.592C40.2773 171.555 35.9253 172.536 31.488 172.536ZM34.304 164.088C37.888 164.088 41.4293 163.277 44.928 161.656C48.4267 160.035 51.9253 157.773 55.424 154.872V138.488C46.5493 139.256 39.552 140.323 34.432 141.688C29.3973 143.053 25.8133 144.803 23.68 146.936C21.632 148.984 20.608 151.373 20.608 154.104C20.608 156.408 21.248 158.328 22.528 159.864C23.808 161.315 25.472 162.381 27.52 163.064C29.6533 163.747 31.9147 164.088 34.304 164.088Z" fill="#05DF72"/>
<path d="M20.864 170.488L20.4556 171.401L20.4657 171.405L20.4759 171.41L20.864 170.488ZM13.184 164.344L13.9995 163.765L13.9995 163.765L13.184 164.344ZM20.864 139L21.3199 139.89L21.3284 139.886L20.864 139ZM55.424 131.576L55.5035 132.573L56.4524 132.497L56.4235 131.546L55.424 131.576ZM53.632 123.768L52.7129 124.162L52.7187 124.176L52.725 124.189L53.632 123.768ZM48.512 118.136L47.993 118.991L48.0044 118.998L48.0159 119.004L48.512 118.136ZM30.976 117.112L31.2337 118.078L31.2443 118.075L31.2548 118.072L30.976 117.112ZM23.552 119.928L23.9858 120.829L23.9925 120.826L23.9992 120.822L23.552 119.928ZM17.152 123.384L16.2838 123.88L16.7938 124.773L17.6719 124.238L17.152 123.384ZM13.056 116.216L12.5013 115.384L11.7247 115.902L12.1878 116.712L13.056 116.216ZM20.48 112.12L20.9058 113.025L20.9169 113.02L20.48 112.12ZM30.08 108.664L30.3225 109.634L30.3339 109.631L30.3452 109.628L30.08 108.664ZM54.784 110.456L54.2814 111.321L54.29 111.325L54.784 110.456ZM63.104 119.416L62.1978 119.839L62.2035 119.851L62.2096 119.863L63.104 119.416ZM65.92 171V172H66.92V171H65.92ZM57.344 171L56.3496 171.105L56.4445 172H57.344V171ZM56.448 162.552L57.4424 162.447L57.3475 161.552H56.448V162.552ZM56.064 162.552V161.552H55.7132L55.4393 161.771L56.064 162.552ZM44.928 161.656L44.5075 160.749L44.5075 160.749L44.928 161.656ZM55.424 154.872L56.0623 155.642L56.424 155.342V154.872H55.424ZM55.424 138.488H56.424V137.398L55.3378 137.492L55.424 138.488ZM34.432 141.688L34.1743 140.722L34.1703 140.723L34.432 141.688ZM23.68 146.936L22.9729 146.229L22.9729 146.229L23.68 146.936ZM22.528 159.864L21.7598 160.504L21.7688 160.515L21.7782 160.526L22.528 159.864ZM27.52 163.064L27.2037 164.013L27.2152 164.016L27.52 163.064ZM31.488 171.536C27.769 171.536 24.3611 170.875 21.2521 169.566L20.4759 171.41C23.8523 172.831 27.527 173.536 31.488 173.536V171.536ZM21.2724 169.575C18.1768 168.19 15.7637 166.251 13.9995 163.765L12.3685 164.923C14.3589 167.727 17.0658 169.884 20.4556 171.401L21.2724 169.575ZM13.9995 163.765C12.2576 161.311 11.368 158.362 11.368 154.872H9.368C9.368 158.72 10.3557 162.087 12.3685 164.923L13.9995 163.765ZM11.368 154.872C11.368 151.548 12.196 148.673 13.8261 146.208C15.4604 143.736 17.9381 141.622 21.3199 139.89L20.4081 138.11C16.7926 139.962 14.0223 142.285 12.1579 145.104C10.2893 147.93 9.368 151.198 9.368 154.872H11.368ZM21.3284 139.886C28.1366 136.315 39.4848 133.851 55.5035 132.573L55.3445 130.579C39.2779 131.861 27.586 134.346 20.3996 138.114L21.3284 139.886ZM56.4235 131.546C56.3344 128.604 55.7092 125.867 54.539 123.347L52.725 124.189C53.7735 126.447 54.3429 128.916 54.4245 131.606L56.4235 131.546ZM54.5511 123.374C53.4363 120.773 51.5745 118.734 49.0081 117.268L48.0159 119.004C50.2282 120.268 51.7797 121.985 52.7129 124.162L54.5511 123.374ZM49.031 117.281C46.4314 115.703 43.0304 114.96 38.912 114.96V116.96C42.8149 116.96 45.8139 117.668 47.993 118.991L49.031 117.281ZM38.912 114.96C36.1685 114.96 33.4294 115.358 30.6972 116.152L31.2548 118.072C33.8133 117.33 36.3648 116.96 38.912 116.96V114.96ZM30.7183 116.146C28.0923 116.846 25.5542 117.809 23.1048 119.034L23.9992 120.822C26.3285 119.658 28.7397 118.743 31.2337 118.078L30.7183 116.146ZM23.1182 119.027C20.788 120.149 18.6256 121.316 16.6321 122.53L17.6719 124.238C19.6038 123.062 21.708 121.926 23.9858 120.829L23.1182 119.027ZM18.0202 122.888L13.9242 115.72L12.1878 116.712L16.2838 123.88L18.0202 122.888ZM13.6107 117.048C15.6074 115.717 18.0366 114.375 20.9058 113.025L20.0542 111.215C17.1207 112.596 14.6006 113.984 12.5013 115.384L13.6107 117.048ZM20.9169 113.02C23.8378 111.601 26.9723 110.472 30.3225 109.634L29.8375 107.694C26.361 108.563 23.0955 109.738 20.0431 111.22L20.9169 113.02ZM30.3452 109.628C33.669 108.714 37.121 108.256 40.704 108.256V106.256C36.9484 106.256 33.3177 106.737 29.8148 107.7L30.3452 109.628ZM40.704 108.256C46.3038 108.256 50.8087 109.302 54.2814 111.321L55.2866 109.591C51.4206 107.344 46.5388 106.256 40.704 106.256V108.256ZM54.29 111.325C57.868 113.358 60.4953 116.191 62.1978 119.839L64.0102 118.993C62.1287 114.961 59.2094 111.82 55.278 109.587L54.29 111.325ZM62.2096 119.863C64.0028 123.45 64.92 127.769 64.92 132.856H66.92C66.92 127.532 65.9599 122.892 63.9984 118.969L62.2096 119.863ZM64.92 132.856V171H66.92V132.856H64.92ZM65.92 170H57.344V172H65.92V170ZM58.3384 170.895L57.4424 162.447L55.4536 162.657L56.3496 171.105L58.3384 170.895ZM56.448 161.552H56.064V163.552H56.448V161.552ZM55.4393 161.771C52.094 164.447 48.3244 166.752 44.1261 168.684L44.9619 170.5C49.297 168.506 53.2074 166.118 56.6887 163.333L55.4393 161.771ZM44.1261 168.684C39.9827 170.589 35.7727 171.536 31.488 171.536V173.536C36.078 173.536 40.572 172.52 44.9619 170.5L44.1261 168.684ZM34.304 165.088C38.044 165.088 41.7282 164.241 45.3485 162.563L44.5075 160.749C41.1305 162.314 37.732 163.088 34.304 163.088V165.088ZM45.3485 162.563C48.9378 160.9 52.5088 158.589 56.0623 155.642L54.7857 154.102C51.3419 156.958 47.9155 159.169 44.5075 160.749L45.3485 162.563ZM56.424 154.872V138.488H54.424V154.872H56.424ZM55.3378 137.492C46.4385 138.262 39.3756 139.335 34.1743 140.722L34.6897 142.654C39.7285 141.311 46.6601 140.25 55.5102 139.484L55.3378 137.492ZM34.1703 140.723C29.0743 142.105 25.2896 143.912 22.9729 146.229L24.3871 147.643C26.337 145.693 29.7204 144.002 34.6937 142.653L34.1703 140.723ZM22.9729 146.229C20.75 148.452 19.608 151.091 19.608 154.104H21.608C21.608 151.656 22.514 149.516 24.3871 147.643L22.9729 146.229ZM19.608 154.104C19.608 156.604 20.3076 158.762 21.7598 160.504L23.2962 159.224C22.1884 157.894 21.608 156.212 21.608 154.104H19.608ZM21.7782 160.526C23.188 162.123 25.0083 163.281 27.2038 164.013L27.8362 162.115C25.9357 161.482 24.428 160.506 23.2778 159.202L21.7782 160.526ZM27.2152 164.016C29.4535 164.733 31.8181 165.088 34.304 165.088V163.088C32.0112 163.088 29.8532 162.761 27.8248 162.112L27.2152 164.016Z" fill="#05DF72" mask="url(#path-1-outside-1_2_14)"/>
<mask id="path-3-outside-2_2_14" maskUnits="userSpaceOnUse" x="102" y="126" width="58" height="38" fill="black">
<rect fill="white" x="102" y="126" width="58" height="38"/>
<path d="M103.88 135.032V127.096H158.92V135.032H103.88ZM103.88 162.424V154.488H158.92V162.424H103.88Z"/>
</mask>
<path d="M103.88 135.032V127.096H158.92V135.032H103.88ZM103.88 162.424V154.488H158.92V162.424H103.88Z" fill="#05DF72"/>
<path d="M103.88 135.032H102.88V136.032H103.88V135.032ZM103.88 127.096V126.096H102.88V127.096H103.88ZM158.92 127.096H159.92V126.096H158.92V127.096ZM158.92 135.032V136.032H159.92V135.032H158.92ZM103.88 162.424H102.88V163.424H103.88V162.424ZM103.88 154.488V153.488H102.88V154.488H103.88ZM158.92 154.488H159.92V153.488H158.92V154.488ZM158.92 162.424V163.424H159.92V162.424H158.92ZM104.88 135.032V127.096H102.88V135.032H104.88ZM103.88 128.096H158.92V126.096H103.88V128.096ZM157.92 127.096V135.032H159.92V127.096H157.92ZM158.92 134.032H103.88V136.032H158.92V134.032ZM104.88 162.424V154.488H102.88V162.424H104.88ZM103.88 155.488H158.92V153.488H103.88V155.488ZM157.92 154.488V162.424H159.92V154.488H157.92ZM158.92 161.424H103.88V163.424H158.92V161.424Z" fill="#05DF72" mask="url(#path-3-outside-2_2_14)"/>
<mask id="path-5-outside-3_2_14" maskUnits="userSpaceOnUse" x="208" y="41" width="145" height="86" fill="black">
<rect fill="white" x="208" y="41" width="145" height="86"/>
<path d="M209.504 126V119.6L236.256 42.032H248.544L275.296 119.6V126H209.504ZM221.152 116.912H263.52L251.104 79.408C249.653 74.8853 248.203 70.2347 246.752 65.456C245.387 60.6773 243.979 55.8987 242.528 51.12H242.016C240.565 55.8987 239.115 60.6773 237.664 65.456C236.299 70.2347 234.891 74.8853 233.44 79.408L221.152 116.912ZM313.518 126L287.278 63.792H297.902L312.238 99.12C313.518 102.192 314.713 105.264 315.822 108.336C317.017 111.408 318.169 114.437 319.278 117.424H319.79C320.899 114.437 322.009 111.408 323.118 108.336C324.227 105.264 325.379 102.192 326.574 99.12L340.91 63.792H351.022L325.294 126H313.518Z"/>
</mask>
<path d="M209.504 126V119.6L236.256 42.032H248.544L275.296 119.6V126H209.504ZM221.152 116.912H263.52L251.104 79.408C249.653 74.8853 248.203 70.2347 246.752 65.456C245.387 60.6773 243.979 55.8987 242.528 51.12H242.016C240.565 55.8987 239.115 60.6773 237.664 65.456C236.299 70.2347 234.891 74.8853 233.44 79.408L221.152 116.912ZM313.518 126L287.278 63.792H297.902L312.238 99.12C313.518 102.192 314.713 105.264 315.822 108.336C317.017 111.408 318.169 114.437 319.278 117.424H319.79C320.899 114.437 322.009 111.408 323.118 108.336C324.227 105.264 325.379 102.192 326.574 99.12L340.91 63.792H351.022L325.294 126H313.518Z" fill="#05DF72"/>
<path d="M209.504 126H208.504V127H209.504V126ZM209.504 119.6L208.559 119.274L208.504 119.432V119.6H209.504ZM236.256 42.032V41.032H235.543L235.311 41.706L236.256 42.032ZM248.544 42.032L249.489 41.706L249.257 41.032H248.544V42.032ZM275.296 119.6H276.296V119.432L276.241 119.274L275.296 119.6ZM275.296 126V127H276.296V126H275.296ZM221.152 116.912L220.202 116.601L219.772 117.912H221.152V116.912ZM263.52 116.912V117.912H264.904L264.469 116.598L263.52 116.912ZM251.104 79.408L250.152 79.7134L250.155 79.7223L251.104 79.408ZM246.752 65.456L245.79 65.7307L245.793 65.7386L245.795 65.7465L246.752 65.456ZM242.528 51.12L243.485 50.8295L243.269 50.12H242.528V51.12ZM242.016 51.12V50.12H241.275L241.059 50.8295L242.016 51.12ZM237.664 65.456L236.707 65.1655L236.705 65.1734L236.702 65.1813L237.664 65.456ZM233.44 79.408L234.39 79.7194L234.392 79.7134L233.44 79.408ZM210.504 126V119.6H208.504V126H210.504ZM210.449 119.926L237.201 42.358L235.311 41.706L208.559 119.274L210.449 119.926ZM236.256 43.032H248.544V41.032H236.256V43.032ZM247.599 42.358L274.351 119.926L276.241 119.274L249.489 41.706L247.599 42.358ZM274.296 119.6V126H276.296V119.6H274.296ZM275.296 125H209.504V127H275.296V125ZM221.152 117.912H263.52V115.912H221.152V117.912ZM264.469 116.598L252.053 79.0937L250.155 79.7223L262.571 117.226L264.469 116.598ZM252.056 79.1026C250.607 74.5851 249.158 69.9394 247.709 65.1655L245.795 65.7465C247.247 70.5299 248.699 75.1855 250.152 79.7134L252.056 79.1026ZM247.714 65.1813C246.347 60.3973 244.937 55.6134 243.485 50.8295L241.571 51.4105C243.02 56.1839 244.427 60.9573 245.79 65.7307L247.714 65.1813ZM242.528 50.12H242.016V52.12H242.528V50.12ZM241.059 50.8295C239.608 55.6082 238.158 60.3868 236.707 65.1655L238.621 65.7465C240.072 60.9678 241.522 56.1891 242.973 51.4105L241.059 50.8295ZM236.702 65.1813C235.34 69.9501 233.935 74.5905 232.488 79.1026L234.392 79.7134C235.846 75.1801 237.257 70.5192 238.626 65.7307L236.702 65.1813ZM232.49 79.0966L220.202 116.601L222.102 117.223L234.39 79.7194L232.49 79.0966ZM313.518 126L312.597 126.389L312.854 127H313.518V126ZM287.278 63.792V62.792H285.771L286.357 64.1806L287.278 63.792ZM297.902 63.792L298.829 63.416L298.575 62.792H297.902V63.792ZM312.238 99.12L311.311 99.496L311.315 99.5046L312.238 99.12ZM315.822 108.336L314.881 108.676L314.886 108.687L314.89 108.698L315.822 108.336ZM319.278 117.424L318.341 117.772L318.583 118.424H319.278V117.424ZM319.79 117.424V118.424H320.485L320.727 117.772L319.79 117.424ZM323.118 108.336L324.059 108.676L324.059 108.676L323.118 108.336ZM326.574 99.12L325.647 98.744L325.645 98.7507L325.642 98.7576L326.574 99.12ZM340.91 63.792V62.792H340.237L339.983 63.416L340.91 63.792ZM351.022 63.792L351.946 64.1742L352.518 62.792H351.022V63.792ZM325.294 126V127H325.963L326.218 126.382L325.294 126ZM314.439 125.611L288.199 63.4033L286.357 64.1806L312.597 126.389L314.439 125.611ZM287.278 64.792H297.902V62.792H287.278V64.792ZM296.975 64.168L311.311 99.496L313.165 98.744L298.829 63.416L296.975 64.168ZM311.315 99.5046C312.589 102.562 313.778 105.619 314.881 108.676L316.763 107.996C315.648 104.909 314.447 101.822 313.161 98.7354L311.315 99.5046ZM314.89 108.698C316.083 111.766 317.233 114.79 318.341 117.772L320.215 117.076C319.104 114.084 317.95 111.05 316.754 107.974L314.89 108.698ZM319.278 118.424H319.79V116.424H319.278V118.424ZM320.727 117.772C321.838 114.783 322.948 111.75 324.059 108.676L322.177 107.996C321.069 111.066 319.961 114.092 318.853 117.076L320.727 117.772ZM324.059 108.676C325.165 105.611 326.314 102.547 327.506 99.4824L325.642 98.7576C324.444 101.837 323.29 104.917 322.177 107.996L324.059 108.676ZM327.501 99.496L341.837 64.168L339.983 63.416L325.647 98.744L327.501 99.496ZM340.91 64.792H351.022V62.792H340.91V64.792ZM350.098 63.4098L324.37 125.618L326.218 126.382L351.946 64.1742L350.098 63.4098ZM325.294 125H313.518V127H325.294V125Z" fill="#05DF72" mask="url(#path-5-outside-3_2_14)"/>
<mask id="path-7-outside-4_2_14" maskUnits="userSpaceOnUse" x="208" y="182" width="144" height="88" fill="black">
<rect fill="white" x="208" y="182" width="144" height="88"/>
<path d="M209.504 267V260.6L236.256 183.032H248.544L275.296 260.6V267H209.504ZM221.152 257.912H263.52L251.104 220.408C249.653 215.885 248.203 211.235 246.752 206.456C245.387 201.677 243.979 196.899 242.528 192.12H242.016C240.565 196.899 239.115 201.677 237.664 206.456C236.299 211.235 234.891 215.885 233.44 220.408L221.152 257.912ZM331.182 268.536C325.123 268.536 320.345 267.469 316.846 265.336C313.347 263.117 310.83 260.088 309.294 256.248C307.843 252.408 307.118 247.928 307.118 242.808V213.368H289.582V205.432L307.502 204.792L308.91 184.824H317.614V204.792H348.206V213.368H317.614V242.936C317.614 246.605 318.083 249.72 319.022 252.28C319.961 254.84 321.582 256.76 323.886 258.04C326.19 259.32 329.347 259.96 333.358 259.96C336.345 259.96 339.033 259.704 341.422 259.192C343.811 258.68 346.115 257.997 348.334 257.144L350.638 264.824C347.822 265.848 344.835 266.701 341.678 267.384C338.606 268.152 335.107 268.536 331.182 268.536Z"/>
</mask>
<path d="M209.504 267V260.6L236.256 183.032H248.544L275.296 260.6V267H209.504ZM221.152 257.912H263.52L251.104 220.408C249.653 215.885 248.203 211.235 246.752 206.456C245.387 201.677 243.979 196.899 242.528 192.12H242.016C240.565 196.899 239.115 201.677 237.664 206.456C236.299 211.235 234.891 215.885 233.44 220.408L221.152 257.912ZM331.182 268.536C325.123 268.536 320.345 267.469 316.846 265.336C313.347 263.117 310.83 260.088 309.294 256.248C307.843 252.408 307.118 247.928 307.118 242.808V213.368H289.582V205.432L307.502 204.792L308.91 184.824H317.614V204.792H348.206V213.368H317.614V242.936C317.614 246.605 318.083 249.72 319.022 252.28C319.961 254.84 321.582 256.76 323.886 258.04C326.19 259.32 329.347 259.96 333.358 259.96C336.345 259.96 339.033 259.704 341.422 259.192C343.811 258.68 346.115 257.997 348.334 257.144L350.638 264.824C347.822 265.848 344.835 266.701 341.678 267.384C338.606 268.152 335.107 268.536 331.182 268.536Z" fill="#05DF72"/>
<path d="M209.504 267H208.504V268H209.504V267ZM209.504 260.6L208.559 260.274L208.504 260.432V260.6H209.504ZM236.256 183.032V182.032H235.543L235.311 182.706L236.256 183.032ZM248.544 183.032L249.489 182.706L249.257 182.032H248.544V183.032ZM275.296 260.6H276.296V260.432L276.241 260.274L275.296 260.6ZM275.296 267V268H276.296V267H275.296ZM221.152 257.912L220.202 257.601L219.772 258.912H221.152V257.912ZM263.52 257.912V258.912H264.904L264.469 257.598L263.52 257.912ZM251.104 220.408L250.152 220.713L250.155 220.722L251.104 220.408ZM246.752 206.456L245.79 206.731L245.793 206.739L245.795 206.746L246.752 206.456ZM242.528 192.12L243.485 191.83L243.269 191.12H242.528V192.12ZM242.016 192.12V191.12H241.275L241.059 191.83L242.016 192.12ZM237.664 206.456L236.707 206.166L236.705 206.173L236.702 206.181L237.664 206.456ZM233.44 220.408L234.39 220.719L234.392 220.713L233.44 220.408ZM210.504 267V260.6H208.504V267H210.504ZM210.449 260.926L237.201 183.358L235.311 182.706L208.559 260.274L210.449 260.926ZM236.256 184.032H248.544V182.032H236.256V184.032ZM247.599 183.358L274.351 260.926L276.241 260.274L249.489 182.706L247.599 183.358ZM274.296 260.6V267H276.296V260.6H274.296ZM275.296 266H209.504V268H275.296V266ZM221.152 258.912H263.52V256.912H221.152V258.912ZM264.469 257.598L252.053 220.094L250.155 220.722L262.571 258.226L264.469 257.598ZM252.056 220.103C250.607 215.585 249.158 210.939 247.709 206.166L245.795 206.746C247.247 211.53 248.699 216.186 250.152 220.713L252.056 220.103ZM247.714 206.181C246.347 201.397 244.937 196.613 243.485 191.83L241.571 192.41C243.02 197.184 244.427 201.957 245.79 206.731L247.714 206.181ZM242.528 191.12H242.016V193.12H242.528V191.12ZM241.059 191.83C239.608 196.608 238.158 201.387 236.707 206.166L238.621 206.746C240.072 201.968 241.522 197.189 242.973 192.41L241.059 191.83ZM236.702 206.181C235.34 210.95 233.935 215.591 232.488 220.103L234.392 220.713C235.846 216.18 237.257 211.519 238.626 206.731L236.702 206.181ZM232.49 220.097L220.202 257.601L222.102 258.223L234.39 220.719L232.49 220.097ZM316.846 265.336L316.31 266.181L316.318 266.185L316.325 266.19L316.846 265.336ZM309.294 256.248L308.359 256.601L308.362 256.61L308.366 256.619L309.294 256.248ZM307.118 213.368H308.118V212.368H307.118V213.368ZM289.582 213.368H288.582V214.368H289.582V213.368ZM289.582 205.432L289.546 204.433L288.582 204.467V205.432H289.582ZM307.502 204.792L307.538 205.791L308.436 205.759L308.5 204.862L307.502 204.792ZM308.91 184.824V183.824H307.978L307.912 184.754L308.91 184.824ZM317.614 184.824H318.614V183.824H317.614V184.824ZM317.614 204.792H316.614V205.792H317.614V204.792ZM348.206 204.792H349.206V203.792H348.206V204.792ZM348.206 213.368V214.368H349.206V213.368H348.206ZM317.614 213.368V212.368H316.614V213.368H317.614ZM319.022 252.28L319.961 251.936L319.961 251.936L319.022 252.28ZM323.886 258.04L323.4 258.914L323.4 258.914L323.886 258.04ZM341.422 259.192L341.632 260.17L341.632 260.17L341.422 259.192ZM348.334 257.144L349.292 256.857L348.982 255.823L347.975 256.211L348.334 257.144ZM350.638 264.824L350.98 265.764L351.867 265.441L351.596 264.537L350.638 264.824ZM341.678 267.384L341.467 266.407L341.451 266.41L341.435 266.414L341.678 267.384ZM331.182 267.536C325.225 267.536 320.651 266.485 317.367 264.482L316.325 266.19C320.039 268.454 325.022 269.536 331.182 269.536V267.536ZM317.382 264.491C314.06 262.385 311.68 259.521 310.222 255.877L308.366 256.619C309.98 260.655 312.635 263.85 316.31 266.181L317.382 264.491ZM310.229 255.895C308.831 252.192 308.118 247.836 308.118 242.808H306.118C306.118 248.02 306.856 252.624 308.359 256.601L310.229 255.895ZM308.118 242.808V213.368H306.118V242.808H308.118ZM307.118 212.368H289.582V214.368H307.118V212.368ZM290.582 213.368V205.432H288.582V213.368H290.582ZM289.618 206.431L307.538 205.791L307.466 203.793L289.546 204.433L289.618 206.431ZM308.5 204.862L309.908 184.894L307.912 184.754L306.504 204.722L308.5 204.862ZM308.91 185.824H317.614V183.824H308.91V185.824ZM316.614 184.824V204.792H318.614V184.824H316.614ZM317.614 205.792H348.206V203.792H317.614V205.792ZM347.206 204.792V213.368H349.206V204.792H347.206ZM348.206 212.368H317.614V214.368H348.206V212.368ZM316.614 213.368V242.936H318.614V213.368H316.614ZM316.614 242.936C316.614 246.685 317.093 249.923 318.083 252.624L319.961 251.936C319.074 249.517 318.614 246.526 318.614 242.936H316.614ZM318.083 252.624C319.101 255.401 320.879 257.513 323.4 258.914L324.372 257.166C322.285 256.007 320.82 254.279 319.961 251.936L318.083 252.624ZM323.4 258.914C325.911 260.309 329.259 260.96 333.358 260.96V258.96C329.436 258.96 326.469 258.331 324.372 257.166L323.4 258.914ZM333.358 260.96C336.4 260.96 339.16 260.699 341.632 260.17L341.212 258.214C338.905 258.709 336.289 258.96 333.358 258.96V260.96ZM341.632 260.17C344.07 259.647 346.424 258.95 348.693 258.077L347.975 256.211C345.806 257.045 343.552 257.713 341.212 258.214L341.632 260.17ZM347.376 257.431L349.68 265.111L351.596 264.537L349.292 256.857L347.376 257.431ZM350.296 263.884C347.526 264.892 344.583 265.733 341.467 266.407L341.889 268.361C345.088 267.67 348.118 266.804 350.98 265.764L350.296 263.884ZM341.435 266.414C338.459 267.158 335.044 267.536 331.182 267.536V269.536C335.17 269.536 338.753 269.146 341.921 268.354L341.435 266.414Z" fill="#05DF72" mask="url(#path-7-outside-4_2_14)"/>
<path d="M200 158H362" stroke="#05DF72" stroke-width="12"/>
</svg>
