<svg width="398" height="182" viewBox="0 0 398 182" fill="none" xmlns="http://www.w3.org/2000/svg">
<path d="M17.024 147V63.032H68.608V71.992H27.776V100.408H62.336V109.368H27.776V147H17.024Z" fill="#05DF72"/>
<path d="M108.88 95.032V87.096H163.92V95.032H108.88ZM108.88 122.424V114.488H163.92V122.424H108.88Z" fill="#05DF72"/>
<path d="M203.424 147V84.792H211.872L212.768 92.984H213.024C214.645 90.0827 216.523 87.736 218.656 85.944C220.789 84.152 223.648 83.256 227.232 83.256C230.304 83.256 232.821 84.152 234.784 85.944C236.747 87.736 238.155 90.424 239.008 94.008C240.8 90.68 242.763 88.0773 244.896 86.2C247.115 84.2373 250.016 83.256 253.6 83.256C257.952 83.256 261.323 84.92 263.712 88.248C266.187 91.4907 267.424 96.2267 267.424 102.456V147H256.928V103.224C256.928 95.9707 254.709 92.344 250.272 92.344C248.139 92.344 246.347 93.1547 244.896 94.776C243.531 96.312 241.995 98.7013 240.288 101.944V147H230.56V103.224C230.56 99.64 230.048 96.952 229.024 95.16C228.085 93.2827 226.464 92.344 224.16 92.344C222.027 92.344 220.149 93.1547 218.528 94.776C216.992 96.312 215.456 98.7013 213.92 101.944V147H203.424Z" fill="#05DF72"/>
<path d="M298.4 127.536C295.584 127.536 293.152 126.555 291.104 124.592C289.056 122.544 288.032 119.941 288.032 116.784C288.032 113.541 289.056 110.939 291.104 108.976C293.152 106.928 295.584 105.904 298.4 105.904C301.301 105.904 303.733 106.928 305.696 108.976C307.744 110.939 308.768 113.541 308.768 116.784C308.768 119.941 307.744 122.544 305.696 124.592C303.733 126.555 301.301 127.536 298.4 127.536Z" fill="#05DF72"/>
<path d="M353.488 148.536C349.648 148.536 346.107 147.853 342.864 146.488C339.621 145.037 337.061 142.989 335.184 140.344C333.307 137.699 332.368 134.541 332.368 130.872C332.368 123.875 335.867 118.584 342.864 115C349.861 111.331 361.381 108.856 377.424 107.576C377.339 104.76 376.741 102.157 375.632 99.768C374.608 97.3787 372.901 95.5013 370.512 94.136C368.123 92.6853 364.923 91.96 360.912 91.96C358.267 91.96 355.621 92.344 352.976 93.112C350.416 93.7947 347.941 94.7333 345.552 95.928C343.248 97.0373 341.115 98.1893 339.152 99.384L335.056 92.216C337.104 90.8507 339.579 89.4853 342.48 88.12C345.467 86.6693 348.667 85.5173 352.08 84.664C355.493 83.7253 359.035 83.256 362.704 83.256C368.421 83.256 373.115 84.3227 376.784 86.456C380.539 88.5893 383.312 91.576 385.104 95.416C386.981 99.1707 387.92 103.651 387.92 108.856V147H379.344L378.448 138.552H378.064C374.651 141.283 370.811 143.629 366.544 145.592C362.277 147.555 357.925 148.536 353.488 148.536ZM356.304 140.088C359.888 140.088 363.429 139.277 366.928 137.656C370.427 136.035 373.925 133.773 377.424 130.872V114.488C368.549 115.256 361.552 116.323 356.432 117.688C351.397 119.053 347.813 120.803 345.68 122.936C343.632 124.984 342.608 127.373 342.608 130.104C342.608 132.408 343.248 134.328 344.528 135.864C345.808 137.315 347.472 138.381 349.52 139.064C351.653 139.747 353.915 140.088 356.304 140.088Z" fill="#05DF72"/>
</svg>
